<svg width="73" height="63" viewBox="0 0 73 63" fill="none" xmlns="http://www.w3.org/2000/svg">
<path d="M41.5193 29.4136C41.3857 29.9446 41.2631 30.3293 41.2816 31.1344C41.3216 32.797 41.8848 34.3024 42.4265 35.3685L51.2022 45.0471H22.8501L30.8302 35.1736C30.9362 35.0425 31.0236 34.8947 31.0906 34.7348C31.497 33.7662 31.8762 32.4731 31.9081 31.1339C31.9299 30.2234 31.7693 29.8497 31.6172 29.1956L41.5193 29.4136Z" fill="#EBB39E"/>
<path d="M60.2004 61.4513H12.7998C12.7941 59.3567 12.8107 49.1981 14.5654 42.9595C14.9969 41.428 15.4955 40.2638 16.1352 39.1977C16.494 38.5991 18.0671 36.0816 21.1382 34.3597C23.9931 32.7589 26.637 32.6892 27.9074 32.7464L30.5731 35.3687L30.6287 35.4232L36.5006 41.1963L42.4275 35.3682H42.428L45.0937 32.7458C46.3636 32.6882 49.008 32.7584 51.8624 34.3592C54.934 36.081 56.5062 38.5986 56.8659 39.1971C57.5052 40.2633 58.0032 41.4274 58.4348 42.959C60.1894 49.1981 60.2061 59.3567 60.2004 61.4513Z" fill="#4CFFA9"/>
<path d="M23.3846 49.2672V61.4518H20.0559V49.2672C20.0559 48.2535 20.8011 47.4316 21.7203 47.4316C22.6394 47.4311 23.3846 48.2535 23.3846 49.2672Z" fill="#EBCD6D"/>
<path d="M52.944 49.2672V61.4518H49.6152V49.2672C49.6152 48.2535 50.3604 47.4316 51.2796 47.4316C52.1997 47.4311 52.944 48.2535 52.944 49.2672Z" fill="#EBCD6D"/>
<path d="M47.1825 14.3904C50.5179 15.5729 48.7955 21.7427 46.2234 22.2202C45.9387 23.6941 45.2881 26.1855 43.7003 28.2585C42.8111 29.419 41.9527 30.0847 41.7384 30.2471C41.2641 30.6067 40.2504 31.3605 38.7466 31.752C38.3479 31.8558 36.8071 32.2227 34.8718 31.752C34.4964 31.6608 32.7175 31.2001 30.9481 29.6019C30.4966 29.1941 28.8142 27.5996 27.9069 24.8179C27.6132 23.9169 27.435 22.8434 27.3675 22.2915C24.7364 21.4492 23.0245 17.1511 25.8965 14.3856L26.5614 6.68421L36.9578 3.85376C36.9578 3.85376 42.7217 5.4603 42.8258 5.61336C42.9299 5.76641 47.1825 14.3904 47.1825 14.3904Z" fill="#F4BAA6"/>
<path d="M39.326 7.93377C39.1045 8.33579 38.7229 8.90241 38.0998 9.33117C37.568 9.69703 37.0305 9.84589 36.5091 9.90197C35.9602 9.9612 35.407 9.90564 34.8675 9.7767C34.3419 9.65143 33.2759 9.51148 31.3302 9.65981C30.1995 9.74577 28.9919 9.81392 27.971 10.4141C26.6693 11.1793 26.2078 12.7681 25.9593 14.264C25.9493 14.3243 25.9174 14.4024 25.8633 14.3893C25.8404 14.3835 25.8238 14.362 25.8096 14.3411C25.4146 13.7629 25.3262 12.8262 25.2568 12.1323C25.0363 9.92085 25.0591 8.16859 25.2483 7.67116C25.3628 7.37082 25.9422 5.90214 27.3081 4.44603C29.5166 2.09204 33.1542 0.859224 35.0049 0.435706C36.5034 0.0923829 38.0879 -0.0816374 39.6363 0.0373462C40.4994 0.10339 41.4033 0.224995 42.2426 0.459293C42.9322 0.651659 43.6157 1.01647 44.0301 1.65437C44.4764 2.34154 44.5842 3.20954 45.1184 3.83905C45.7016 4.52622 46.4967 4.93612 47.0931 5.60704C47.8911 6.50439 48.6853 7.91647 48.8003 9.18231C48.9039 10.3229 48.4505 11.3995 47.9286 12.3498C47.8322 12.5254 47.2761 14.4999 47.182 14.3909C46.9662 14.1398 44.2378 13.331 42.072 10.4067C41.5592 9.71432 41.333 9.41399 41.14 9.20642C41.0112 9.06752 40.6139 8.65238 40.0284 8.20318C39.8392 8.05694 39.4348 7.73092 39.326 7.93377Z" fill="#784132"/>
<path d="M50.2402 37.1963H22.7597C21.7098 37.1963 20.8586 38.1351 20.8586 39.2929V58.9121H52.1412V39.2929C52.1412 38.1351 51.29 37.1963 50.2402 37.1963Z" fill="#33444D"/>
<path d="M50.9651 61.4513H22.0351C20.01 61.4513 18.3689 59.6409 18.3689 57.408V56.8157H54.6313V57.408C54.6313 59.6414 52.9897 61.4513 50.9651 61.4513Z" fill="#465A65"/>
<path d="M32.9974 50.4149C32.8724 50.4149 32.746 50.3714 32.6386 50.2807L29.3659 47.5242C29.2196 47.401 29.1335 47.2092 29.1335 47.0058C29.1335 46.8024 29.2196 46.6106 29.3659 46.4874L32.6386 43.7309C32.8981 43.5123 33.2693 43.5668 33.4679 43.8535C33.6661 44.1397 33.6167 44.5491 33.3567 44.7682L30.6995 47.0063L33.3567 49.2445C33.6162 49.4631 33.6661 49.8724 33.4679 50.1591C33.3515 50.3269 33.1752 50.4149 32.9974 50.4149Z" fill="#E59CFF"/>
<path d="M40.0028 50.415C39.8246 50.415 39.6488 50.3265 39.5323 50.1587C39.3342 49.8725 39.3836 49.4632 39.6436 49.2441L42.3007 47.0059L39.6436 44.7678C39.3841 44.5492 39.3342 44.1398 39.5323 43.8531C39.7305 43.5669 40.1017 43.5119 40.3617 43.7305L43.6343 46.487C43.7807 46.6102 43.8667 46.802 43.8667 47.0054C43.8667 47.2088 43.7807 47.4006 43.6343 47.5238L40.3617 50.2803C40.2547 50.3715 40.1283 50.415 40.0028 50.415Z" fill="#E59CFF"/>
<path d="M35.4311 51.8791C35.3784 51.8791 35.3247 51.8712 35.2715 51.8549C34.9568 51.758 34.7729 51.3979 34.8608 51.0509L36.9995 42.6104C37.0874 42.2634 37.4139 42.0606 37.7286 42.1575C38.0432 42.2545 38.2271 42.6146 38.1392 42.9616L36.0005 51.4021C35.9273 51.6904 35.6897 51.8791 35.4311 51.8791Z" fill="#E59CFF"/>
<path d="M71.8594 62.7084H1.14062C0.510905 62.7084 0 62.1451 0 61.4508C0 60.7564 0.510905 60.1931 1.14062 60.1931H71.8594C72.4891 60.1931 73 60.7564 73 61.4508C73 62.1451 72.4891 62.7084 71.8594 62.7084Z" fill="#FFA96B"/>
</svg>
