<svg width="319" height="66" viewBox="0 0 319 66" fill="none" xmlns="http://www.w3.org/2000/svg">
<path d="M23.0313 8.25V12.375M12.5625 22.6875H8.375M58.625 22.6875H54.4375M12.5625 33H8.375M58.625 33H54.4375M12.5625 43.3125H8.375M58.625 43.3125H54.4375M23.0313 53.625V57.75M33.5 8.25V12.375M33.5 53.625V57.75M43.9688 8.25V12.375M43.9688 53.625V57.75M18.8438 53.625H48.1563C49.8221 53.625 51.4198 52.9731 52.5978 51.8127C53.7757 50.6523 54.4375 49.0785 54.4375 47.4375V18.5625C54.4375 16.9215 53.7757 15.3477 52.5978 14.1873C51.4198 13.0269 49.8221 12.375 48.1563 12.375H18.8438C17.1779 12.375 15.5802 13.0269 14.4022 14.1873C13.2243 15.3477 12.5625 16.9215 12.5625 18.5625V47.4375C12.5625 49.0785 13.2243 50.6523 14.4022 51.8127C15.5802 52.9731 17.1779 53.625 18.8438 53.625ZM20.9375 20.625H46.0625V45.375H20.9375V20.625Z" stroke="black" stroke-width="4" stroke-linecap="round" stroke-linejoin="round"/>
<g filter="url(#filter0_d_17_422)">
<path d="M82.9888 37.08L70.0288 30.264L70.5728 26.648L85.7088 19.832L85.1968 23.256L74.8928 27.832C74.4448 28.024 74.0181 28.184 73.6128 28.312C73.2074 28.44 72.8981 28.5253 72.6848 28.568C72.8981 28.632 73.1861 28.728 73.5488 28.856C73.9328 28.984 74.3061 29.144 74.6688 29.336L83.5328 33.912L82.9888 37.08ZM87.9683 39L91.6803 15.64H98.5603C100.758 15.64 102.4 16.184 103.488 17.272C104.598 18.3387 105.003 19.8 104.704 21.656C104.512 22.9787 103.99 24.088 103.136 24.984C102.304 25.8587 101.28 26.424 100.064 26.68C101.344 26.9573 102.304 27.5973 102.944 28.6C103.584 29.6027 103.776 30.8827 103.52 32.44C103.2 34.4453 102.304 36.0453 100.832 37.24C99.3603 38.4133 97.5149 39 95.2963 39H87.9683ZM93.4723 25.432H96.9603C98.0909 25.432 99.0403 25.1333 99.8083 24.536C100.576 23.9173 101.046 23.0747 101.216 22.008C101.387 20.9627 101.184 20.1413 100.608 19.544C100.054 18.9253 99.2109 18.616 98.0803 18.616H94.5603L93.4723 25.432ZM91.8083 36.024H95.4883C96.7256 36.024 97.7603 35.6933 98.5923 35.032C99.4243 34.3493 99.9363 33.432 100.128 32.28C100.299 31.0853 100.075 30.1253 99.4563 29.4C98.8589 28.6747 97.9416 28.312 96.7043 28.312H93.0243L91.8083 36.024ZM116.372 39C114.708 39 113.46 38.52 112.628 37.56C111.796 36.5787 111.508 35.2773 111.764 33.656L114.1 18.776H108.788L109.3 15.64H118.068L115.22 33.656C115.113 34.3387 115.22 34.8827 115.54 35.288C115.86 35.672 116.34 35.864 116.98 35.864H122.676L122.196 39H116.372ZM131.911 39.32C130.141 39.32 128.829 38.7333 127.975 37.56C127.122 36.3653 126.866 34.744 127.207 32.696L127.975 27.736C128.295 25.688 129.074 24.0667 130.311 22.872C131.549 21.6773 133.053 21.08 134.823 21.08C136.125 21.08 137.138 21.4107 137.863 22.072C138.61 22.7333 138.973 23.6293 138.951 24.76H139.015L139.495 21.4H142.951L140.167 39H136.743L137.287 35.64H137.223C136.882 36.792 136.242 37.6987 135.303 38.36C134.365 39 133.234 39.32 131.911 39.32ZM133.607 36.312C134.695 36.312 135.602 35.9813 136.327 35.32C137.074 34.6587 137.543 33.72 137.735 32.504L138.439 27.896C138.631 26.7013 138.461 25.7733 137.927 25.112C137.415 24.4293 136.615 24.088 135.527 24.088C134.418 24.088 133.501 24.4187 132.775 25.08C132.05 25.7413 131.591 26.68 131.399 27.896L130.695 32.504C130.503 33.7413 130.653 34.6907 131.143 35.352C131.655 35.992 132.477 36.312 133.607 36.312ZM152.475 39.32C150.277 39.32 148.624 38.712 147.515 37.496C146.427 36.28 146.053 34.616 146.395 32.504L147.099 27.896C147.44 25.784 148.357 24.12 149.851 22.904C151.344 21.688 153.189 21.08 155.387 21.08C157.499 21.08 159.099 21.6347 160.187 22.744C161.296 23.8533 161.744 25.368 161.531 27.288H158.075C158.16 26.2853 157.915 25.5067 157.339 24.952C156.784 24.3973 155.963 24.12 154.875 24.12C153.701 24.12 152.741 24.4507 151.995 25.112C151.248 25.752 150.779 26.6693 150.587 27.864L149.851 32.504C149.659 33.72 149.829 34.6587 150.363 35.32C150.917 35.96 151.781 36.28 152.955 36.28C154.043 36.28 154.949 36.0027 155.675 35.448C156.421 34.8933 156.912 34.104 157.147 33.08H160.603C160.219 35 159.291 36.5253 157.819 37.656C156.368 38.7653 154.587 39.32 152.475 39.32ZM164.782 39L168.494 15.64H171.95L169.902 28.472H172.686L178.51 21.4H182.478L175.534 29.976L179.79 39H175.918L172.398 31.448H169.454L168.238 39H164.782ZM190.85 39.32C188.652 39.32 186.999 38.712 185.89 37.496C184.802 36.2587 184.428 34.5947 184.77 32.504L186.402 22.136C186.743 20.024 187.65 18.36 189.122 17.144C190.615 15.928 192.46 15.32 194.658 15.32C196.834 15.32 198.466 15.9387 199.554 17.176C200.663 18.392 201.047 20.0453 200.706 22.136H197.25C197.442 20.92 197.26 19.992 196.706 19.352C196.172 18.712 195.33 18.392 194.178 18.392C193.004 18.392 192.034 18.712 191.266 19.352C190.519 19.992 190.05 20.9093 189.858 22.104L188.226 32.504C188.034 33.72 188.204 34.648 188.738 35.288C189.292 35.928 190.156 36.248 191.33 36.248C192.503 36.248 193.463 35.928 194.21 35.288C194.956 34.648 195.426 33.72 195.618 32.504H199.074C198.86 33.8907 198.37 35.096 197.602 36.12C196.855 37.144 195.906 37.9333 194.754 38.488C193.602 39.0427 192.3 39.32 190.85 39.32ZM209.909 39.32C207.733 39.32 206.112 38.712 205.045 37.496C203.979 36.2587 203.616 34.5947 203.957 32.504L204.661 27.896C205.003 25.8053 205.899 24.152 207.349 22.936C208.821 21.6987 210.645 21.08 212.821 21.08C214.997 21.08 216.619 21.688 217.685 22.904C218.752 24.12 219.125 25.7733 218.805 27.864L218.069 32.504C217.728 34.5947 216.821 36.2587 215.349 37.496C213.899 38.712 212.085 39.32 209.909 39.32ZM210.389 36.28C211.541 36.28 212.48 35.96 213.205 35.32C213.931 34.68 214.4 33.7413 214.613 32.504L215.317 27.896C215.509 26.6587 215.349 25.72 214.837 25.08C214.325 24.44 213.493 24.12 212.341 24.12C211.189 24.12 210.251 24.44 209.525 25.08C208.8 25.72 208.331 26.6587 208.117 27.896L207.413 32.504C207.221 33.7413 207.381 34.68 207.893 35.32C208.405 35.96 209.237 36.28 210.389 36.28ZM227.849 39.32C226.078 39.32 224.766 38.7333 223.913 37.56C223.081 36.3653 222.825 34.744 223.145 32.696L223.913 27.736C224.233 25.688 225.011 24.0667 226.249 22.872C227.486 21.6773 228.99 21.08 230.761 21.08C232.062 21.08 233.075 21.4107 233.801 22.072C234.547 22.7333 234.91 23.6293 234.889 24.76H234.953L235.529 20.664L236.361 15.64H239.817L236.105 39H232.681L233.225 35.64H233.161C232.819 36.792 232.179 37.6987 231.241 38.36C230.302 39 229.171 39.32 227.849 39.32ZM229.545 36.312C230.633 36.312 231.539 35.9813 232.265 35.32C233.011 34.6587 233.481 33.72 233.673 32.504L234.377 27.896C234.59 26.7013 234.43 25.7733 233.897 25.112C233.363 24.4293 232.553 24.088 231.465 24.088C230.355 24.088 229.438 24.4187 228.713 25.08C227.987 25.7413 227.529 26.68 227.337 27.896L226.633 32.504C226.419 33.7413 226.569 34.6907 227.081 35.352C227.593 35.992 228.414 36.312 229.545 36.312ZM248.284 39.32C246.13 39.32 244.519 38.7013 243.452 37.464C242.386 36.2053 242.012 34.552 242.332 32.504L243.036 27.896C243.271 26.5307 243.751 25.336 244.476 24.312C245.223 23.288 246.172 22.4987 247.324 21.944C248.476 21.368 249.767 21.08 251.196 21.08C253.351 21.08 254.962 21.7093 256.028 22.968C257.116 24.2053 257.49 25.848 257.148 27.896L256.668 31.032H245.916L245.66 32.504C245.234 35.1707 246.268 36.504 248.764 36.504C250.77 36.504 252.05 35.8107 252.604 34.424H256.028C255.559 35.9173 254.62 37.112 253.212 38.008C251.804 38.8827 250.162 39.32 248.284 39.32ZM246.396 27.896L246.268 28.696L253.692 28.664L253.82 27.864C254.012 26.5627 253.852 25.5707 253.34 24.888C252.85 24.184 251.996 23.832 250.78 23.832C249.543 23.832 248.551 24.184 247.804 24.888C247.079 25.592 246.61 26.5947 246.396 27.896ZM260.816 37.08L261.328 33.688L271.632 29.112C272.08 28.92 272.506 28.76 272.912 28.632C273.317 28.504 273.626 28.4187 273.84 28.376C273.626 28.312 273.338 28.216 272.976 28.088C272.613 27.96 272.25 27.8 271.888 27.608L263.024 23.032L263.536 19.832L276.528 26.648L275.952 30.264L260.816 37.08Z" fill="black"/>
<path d="M67.4688 44.76H278.544V46.36H67.4688V44.76Z" fill="black"/>
<path d="M82.9888 37.08L82.5233 37.9651L83.7414 38.6057L83.9743 37.2492L82.9888 37.08ZM70.0288 30.264L69.0399 30.1152L68.9341 30.8182L69.5633 31.1491L70.0288 30.264ZM70.5728 26.648L70.1621 25.7362L69.665 25.9601L69.5839 26.4992L70.5728 26.648ZM85.7088 19.832L86.6978 19.9799L86.9687 18.1679L85.2981 18.9202L85.7088 19.832ZM85.1968 23.256L85.6026 24.1699L86.1045 23.947L86.1858 23.4039L85.1968 23.256ZM74.8927 27.832L75.2867 28.7512L75.2986 28.7459L74.8927 27.832ZM73.6128 28.312L73.3116 27.3584V27.3584L73.6128 28.312ZM72.6847 28.568L72.4886 27.5874L72.3974 29.5258L72.6847 28.568ZM73.5488 28.856L73.2159 29.799L73.2242 29.8019L73.2325 29.8047L73.5488 28.856ZM74.6688 29.336L74.2008 30.2198L74.21 30.2246L74.6688 29.336ZM83.5328 33.912L84.5183 34.0812L84.6423 33.3594L83.9915 33.0234L83.5328 33.912ZM83.4542 36.1949L70.4942 29.3789L69.5633 31.1491L82.5233 37.9651L83.4542 36.1949ZM71.0176 30.4128L71.5616 26.7968L69.5839 26.4992L69.0399 30.1152L71.0176 30.4128ZM70.9834 27.5598L86.1194 20.7438L85.2981 18.9202L70.1621 25.7362L70.9834 27.5598ZM84.7197 19.6841L84.2077 23.1081L86.1858 23.4039L86.6978 19.9799L84.7197 19.6841ZM84.7909 22.3421L74.4869 26.9181L75.2986 28.7459L85.6026 24.1699L84.7909 22.3421ZM74.4988 26.9129C74.0769 27.0937 73.6813 27.2417 73.3116 27.3584L73.9139 29.2656C74.3549 29.1263 74.8126 28.9543 75.2867 28.7511L74.4988 26.9129ZM73.3116 27.3584C72.9149 27.4837 72.6473 27.5557 72.4886 27.5874L72.8809 29.5486C73.1489 29.495 73.5 29.3963 73.9139 29.2656L73.3116 27.3584ZM72.3974 29.5258C72.5884 29.5831 72.8592 29.6731 73.2159 29.799L73.8816 27.913C73.513 27.7829 73.2078 27.6809 72.9721 27.6102L72.3974 29.5258ZM73.2325 29.8047C73.5636 29.915 73.8862 30.0532 74.2009 30.2198L75.1366 28.4522C74.726 28.2348 74.3019 28.053 73.865 27.9073L73.2325 29.8047ZM74.21 30.2246L83.074 34.8006L83.9915 33.0234L75.1275 28.4474L74.21 30.2246ZM82.5472 33.7428L82.0032 36.9108L83.9743 37.2492L84.5183 34.0812L82.5472 33.7428ZM87.9683 39L86.9806 38.8431L86.7968 40H87.9683V39ZM91.6803 15.64V14.64H90.8266L90.6926 15.4831L91.6803 15.64ZM103.488 17.272L102.781 17.9791L102.788 17.986L102.795 17.9928L103.488 17.272ZM104.704 21.656L103.717 21.4971L103.716 21.5047L103.715 21.5123L104.704 21.656ZM103.136 24.984L102.412 24.2943L102.412 24.2948L103.136 24.984ZM100.064 26.68L99.8582 25.7015L99.8525 27.6573L100.064 26.68ZM102.944 28.6L102.101 29.138L102.944 28.6ZM103.52 32.44L102.533 32.2778L102.533 32.2824L103.52 32.44ZM100.832 37.24L101.456 38.022L101.462 38.0165L100.832 37.24ZM93.4723 25.432L92.4847 25.2744L92.3 26.432H93.4723V25.432ZM99.8083 24.536L100.422 25.3254L100.429 25.3201L100.436 25.3148L99.8083 24.536ZM101.216 22.008L100.229 21.8469L100.229 21.85L101.216 22.008ZM100.608 19.544L99.8637 20.2115L99.8758 20.2251L99.8884 20.2381L100.608 19.544ZM94.5602 18.616V17.616H93.7072L93.5728 18.4584L94.5602 18.616ZM91.8083 36.024L90.8205 35.8682L90.6382 37.024H91.8083V36.024ZM98.5923 35.032L99.2145 35.8148L99.2206 35.81L99.2266 35.8051L98.5923 35.032ZM100.128 32.28L101.115 32.4444L101.117 32.4329L101.118 32.4214L100.128 32.28ZM99.4563 29.4L98.6843 30.0357L98.6898 30.0424L98.6954 30.0489L99.4563 29.4ZM93.0243 28.312V27.312H92.1696L92.0365 28.1562L93.0243 28.312ZM88.9559 39.1569L92.6679 15.7969L90.6926 15.4831L86.9806 38.8431L88.9559 39.1569ZM91.6803 16.64H98.5602V14.64H91.6803V16.64ZM98.5602 16.64C100.607 16.64 101.948 17.1464 102.781 17.9791L104.195 16.5649C102.852 15.2216 100.908 14.64 98.5602 14.64V16.64ZM102.795 17.9928C103.614 18.7806 103.977 19.8835 103.717 21.4971L105.692 21.8149C106.029 19.7165 105.581 17.8968 104.181 16.5512L102.795 17.9928ZM103.715 21.5123C103.55 22.6472 103.111 23.5606 102.412 24.2943L103.86 25.6737C104.868 24.6154 105.475 23.3101 105.694 21.7997L103.715 21.5123ZM102.412 24.2948C101.724 25.0182 100.882 25.4859 99.8582 25.7015L100.27 27.6585C101.678 27.3621 102.885 26.6991 103.861 25.6732L102.412 24.2948ZM99.8525 27.6573C100.901 27.8845 101.62 28.3839 102.101 29.138L103.787 28.062C102.989 26.8108 101.788 26.0302 100.276 25.7027L99.8525 27.6573ZM102.101 29.138C102.57 29.8729 102.763 30.8827 102.533 32.2778L104.507 32.6022C104.79 30.8826 104.598 29.3324 103.787 28.062L102.101 29.138ZM102.533 32.2824C102.249 34.0633 101.468 35.4357 100.202 36.4635L101.462 38.0165C103.14 36.6549 104.152 34.8273 104.508 32.5976L102.533 32.2824ZM100.209 36.458C98.9444 37.466 97.3306 38 95.2962 38V40C97.6992 40 99.7761 39.3607 101.456 38.022L100.209 36.458ZM95.2962 38H87.9683V40H95.2962V38ZM93.4723 26.432H96.9603V24.432H93.4723V26.432ZM96.9603 26.432C98.2757 26.432 99.4511 26.0806 100.422 25.3254L99.1943 23.7466C98.6294 24.186 97.9062 24.432 96.9603 24.432V26.432ZM100.436 25.3148C101.415 24.5255 101.998 23.4518 102.204 22.166L100.229 21.85C100.093 22.6976 99.7372 23.3091 99.1809 23.7572L100.436 25.3148ZM102.203 22.1691C102.409 20.9074 102.182 19.7355 101.328 18.8499L99.8884 20.2381C100.186 20.5472 100.365 21.018 100.229 21.8469L102.203 22.1691ZM101.353 18.8765C100.547 17.9779 99.3881 17.616 98.0803 17.616V19.616C99.0338 19.616 99.56 19.8728 99.8637 20.2115L101.353 18.8765ZM98.0803 17.616H94.5602V19.616H98.0803V17.616ZM93.5728 18.4584L92.4847 25.2744L94.4597 25.5896L95.5478 18.7736L93.5728 18.4584ZM91.8083 37.024H95.4883V35.024H91.8083V37.024ZM95.4883 37.024C96.9128 37.024 98.1774 36.6392 99.2145 35.8148L97.97 34.2492C97.3431 34.7475 96.5384 35.024 95.4883 35.024V37.024ZM99.2266 35.8051C100.262 34.9553 100.887 33.8132 101.115 32.4444L99.1419 32.1156C98.986 33.0508 98.5862 33.7434 97.9579 34.2589L99.2266 35.8051ZM101.118 32.4214C101.318 31.0237 101.069 29.7502 100.217 28.7511L98.6954 30.0489C99.0806 30.5005 99.28 31.1469 99.1383 32.1386L101.118 32.4214ZM100.228 28.7643C99.3847 27.74 98.139 27.312 96.7043 27.312V29.312C97.7442 29.312 98.3332 29.6093 98.6843 30.0357L100.228 28.7643ZM96.7043 27.312H93.0243V29.312H96.7043V27.312ZM92.0365 28.1562L90.8205 35.8682L92.796 36.1798L94.012 28.4678L92.0365 28.1562ZM112.628 37.56L111.865 38.2067L111.872 38.2149L112.628 37.56ZM111.764 33.656L112.752 33.812L112.752 33.8111L111.764 33.656ZM114.1 18.776L115.088 18.9311L115.269 17.776H114.1V18.776ZM108.788 18.776L107.801 18.6149L107.611 19.776H108.788V18.776ZM109.3 15.64V14.64H108.45L108.313 15.4789L109.3 15.64ZM118.068 15.64L119.055 15.7961L119.238 14.64H118.068V15.64ZM115.22 33.656L114.232 33.4999L114.232 33.5016L115.22 33.656ZM115.54 35.288L114.755 35.9076L114.763 35.918L114.772 35.9282L115.54 35.288ZM122.676 35.864L123.664 36.0153L123.84 34.864H122.676V35.864ZM122.196 39V40H123.054L123.184 39.1513L122.196 39ZM116.372 38C114.902 38 113.971 37.5827 113.383 36.9051L111.872 38.2149C112.949 39.4573 114.513 40 116.372 40V38ZM113.391 36.9133C112.796 36.2123 112.527 35.231 112.752 33.812L110.776 33.5C110.488 35.3237 110.795 36.945 111.865 38.2067L113.391 36.9133ZM112.752 33.8111L115.088 18.9311L113.112 18.6209L110.776 33.5009L112.752 33.8111ZM114.1 17.776H108.788V19.776H114.1V17.776ZM109.775 18.9371L110.287 15.8011L108.313 15.4789L107.801 18.6149L109.775 18.9371ZM109.3 16.64H118.068V14.64H109.3V16.64ZM117.08 15.4839L114.232 33.4999L116.207 33.8121L119.055 15.7961L117.08 15.4839ZM114.232 33.5016C114.097 34.3623 114.21 35.2171 114.755 35.9076L116.325 34.6684C116.23 34.5482 116.129 34.3151 116.208 33.8104L114.232 33.5016ZM114.772 35.9282C115.332 36.6012 116.133 36.864 116.98 36.864V34.864C116.547 34.864 116.387 34.7428 116.308 34.6478L114.772 35.9282ZM116.98 36.864H122.676V34.864H116.98V36.864ZM121.687 35.7127L121.207 38.8487L123.184 39.1513L123.664 36.0153L121.687 35.7127ZM122.196 38H116.372V40H122.196V38ZM127.975 37.56L127.161 38.1413L127.167 38.1482L127.975 37.56ZM127.207 32.696L128.194 32.8604L128.195 32.849L127.207 32.696ZM127.975 27.736L126.987 27.5816L126.987 27.583L127.975 27.736ZM137.863 22.072L137.189 22.811L137.195 22.8158L137.2 22.8206L137.863 22.072ZM138.951 24.76L137.951 24.7411L137.932 25.76H138.951V24.76ZM139.015 24.76V25.76H139.883L140.005 24.9014L139.015 24.76ZM139.495 21.4V20.4H138.628L138.505 21.2586L139.495 21.4ZM142.951 21.4L143.939 21.5562L144.122 20.4H142.951V21.4ZM140.167 39V40H141.021L141.155 39.1562L140.167 39ZM136.743 39L135.756 38.8402L135.568 40H136.743V39ZM137.287 35.64L138.274 35.7998L138.462 34.64H137.287V35.64ZM137.223 35.64V34.64H136.477L136.264 35.3559L137.223 35.64ZM135.303 38.36L135.867 39.1862L135.873 39.1819L135.879 39.1775L135.303 38.36ZM136.327 35.32L135.664 34.5714L135.659 34.5762L135.653 34.581L136.327 35.32ZM137.735 32.504L138.723 32.66L138.724 32.655L137.735 32.504ZM138.439 27.896L137.452 27.7373L137.451 27.745L138.439 27.896ZM137.927 25.112L137.127 25.712L137.138 25.7261L137.149 25.7398L137.927 25.112ZM132.775 25.08L132.101 24.341L132.775 25.08ZM131.399 27.896L130.411 27.74L130.411 27.745L131.399 27.896ZM130.695 32.504L131.683 32.6573L131.684 32.655L130.695 32.504ZM131.143 35.352L130.34 35.9478L130.351 35.9625L130.362 35.9767L131.143 35.352ZM131.911 38.32C130.381 38.32 129.407 37.8283 128.784 36.9718L127.167 38.1482C128.25 39.6383 129.9 40.32 131.911 40.32V38.32ZM128.789 36.9788C128.144 36.076 127.878 34.7564 128.194 32.8604L126.221 32.5316C125.854 34.7316 126.1 36.6546 127.162 38.1412L128.789 36.9788ZM128.195 32.849L128.963 27.889L126.987 27.583L126.219 32.543L128.195 32.849ZM128.963 27.8904C129.257 26.0122 129.955 24.6056 131.006 23.5914L129.617 22.1526C128.192 23.5277 127.334 25.3638 126.987 27.5816L128.963 27.8904ZM131.006 23.5914C132.051 22.5826 133.303 22.08 134.823 22.08V20.08C132.802 20.08 131.046 20.7721 129.617 22.1526L131.006 23.5914ZM134.823 22.08C135.958 22.08 136.702 22.3661 137.189 22.811L138.537 21.333C137.574 20.4552 136.291 20.08 134.823 20.08V22.08ZM137.2 22.8206C137.697 23.2605 137.968 23.8595 137.951 24.7411L139.951 24.7789C139.977 23.3992 139.523 22.2062 138.526 21.3234L137.2 22.8206ZM138.951 25.76H139.015V23.76H138.951V25.76ZM140.005 24.9014L140.485 21.5414L138.505 21.2586L138.025 24.6186L140.005 24.9014ZM139.495 22.4H142.951V20.4H139.495V22.4ZM141.964 21.2438L139.18 38.8438L141.155 39.1562L143.939 21.5562L141.964 21.2438ZM140.167 38H136.743V40H140.167V38ZM137.73 39.1598L138.274 35.7998L136.3 35.4802L135.756 38.8402L137.73 39.1598ZM137.287 34.64H137.223V36.64H137.287V34.64ZM136.264 35.3559C135.984 36.3029 135.473 37.0172 134.727 37.5425L135.879 39.1775C137.011 38.3802 137.78 37.2811 138.182 35.9241L136.264 35.3559ZM134.74 37.5338C133.993 38.0429 133.067 38.32 131.911 38.32V40.32C133.401 40.32 134.736 39.9571 135.867 39.1862L134.74 37.5338ZM133.607 37.312C134.915 37.312 136.071 36.9069 137.001 36.059L135.653 34.581C135.133 35.0557 134.475 35.312 133.607 35.312V37.312ZM136.99 36.0686C137.948 35.2199 138.504 34.0498 138.723 32.66L136.747 32.348C136.583 33.3902 136.199 34.0974 135.664 34.5714L136.99 36.0686ZM138.724 32.655L139.428 28.047L137.451 27.745L136.747 32.353L138.724 32.655ZM139.427 28.0547C139.644 26.7019 139.482 25.4468 138.706 24.4842L137.149 25.7398C137.439 26.0998 137.619 26.7008 137.452 27.7373L139.427 28.0547ZM138.727 24.512C137.976 23.5099 136.835 23.088 135.527 23.088V25.088C136.396 25.088 136.855 25.3487 137.127 25.712L138.727 24.512ZM135.527 23.088C134.204 23.088 133.035 23.4897 132.101 24.341L133.449 25.819C133.966 25.3477 134.632 25.088 135.527 25.088V23.088ZM132.101 24.341C131.169 25.1909 130.63 26.358 130.411 27.74L132.387 28.052C132.553 27.002 132.93 26.2917 133.449 25.819L132.101 24.341ZM130.411 27.745L129.707 32.353L131.684 32.655L132.388 28.047L130.411 27.745ZM129.707 32.3507C129.495 33.7169 129.624 34.982 130.34 35.9478L131.946 34.7562C131.682 34.3993 131.511 33.7658 131.683 32.6573L129.707 32.3507ZM130.362 35.9767C131.129 36.9352 132.295 37.312 133.607 37.312V35.312C132.658 35.312 132.181 35.0488 131.924 34.7273L130.362 35.9767ZM147.515 37.496L146.769 38.1628L146.776 38.17L147.515 37.496ZM146.395 32.504L147.382 32.6636L147.383 32.655L146.395 32.504ZM147.099 27.896L146.112 27.7364L146.11 27.745L147.099 27.896ZM149.851 22.904L149.219 22.1286L149.851 22.904ZM160.187 22.744L159.473 23.4442L159.48 23.4511L160.187 22.744ZM161.531 27.288V28.288H162.426L162.525 27.3984L161.531 27.288ZM158.075 27.288L157.078 27.2032L156.986 28.288H158.075V27.288ZM157.339 24.952L156.632 25.6591L156.638 25.6658L156.645 25.6723L157.339 24.952ZM151.995 25.112L152.646 25.8713L152.652 25.866L152.658 25.8606L151.995 25.112ZM150.587 27.864L149.599 27.7053L149.599 27.7073L150.587 27.864ZM149.851 32.504L148.863 32.3473L148.863 32.348L149.851 32.504ZM150.363 35.32L149.584 35.9478L149.595 35.9615L149.607 35.9749L150.363 35.32ZM155.675 35.448L155.078 34.6452L155.067 34.6536L155.675 35.448ZM157.147 33.08V32.08H156.35L156.172 32.8566L157.147 33.08ZM160.603 33.08L161.583 33.2761L161.823 32.08H160.603V33.08ZM157.819 37.656L158.426 38.4504L158.428 38.4491L157.819 37.656ZM152.475 38.32C150.46 38.32 149.116 37.7672 148.254 36.822L146.776 38.17C148.132 39.6568 150.095 40.32 152.475 40.32V38.32ZM148.26 36.8292C147.432 35.9039 147.073 34.5774 147.382 32.6635L145.408 32.3445C145.034 34.6546 145.421 36.6561 146.77 38.1628L148.26 36.8292ZM147.383 32.655L148.087 28.047L146.11 27.745L145.406 32.353L147.383 32.655ZM148.086 28.0555C148.393 26.1566 149.2 24.7231 150.482 23.6794L149.219 22.1286C147.514 23.5169 146.487 25.4114 146.112 27.7365L148.086 28.0555ZM150.482 23.6794C151.772 22.6289 153.385 22.08 155.387 22.08V20.08C152.994 20.08 150.916 20.7471 149.219 22.1286L150.482 23.6794ZM155.387 22.08C157.329 22.08 158.633 22.5875 159.473 23.4442L160.901 22.0438C159.565 20.6818 157.668 20.08 155.387 20.08V22.08ZM159.48 23.4511C160.325 24.2963 160.725 25.4825 160.537 27.1776L162.525 27.3984C162.763 25.2535 162.267 23.4104 160.894 22.0369L159.48 23.4511ZM161.531 26.288H158.075V28.288H161.531V26.288ZM159.071 27.3728C159.175 26.1545 158.88 25.048 158.032 24.2317L156.645 25.6723C156.949 25.9654 157.145 26.4161 157.078 27.2032L159.071 27.3728ZM158.046 24.2449C157.241 23.4398 156.123 23.12 154.875 23.12V25.12C155.802 25.12 156.327 25.3548 156.632 25.6591L158.046 24.2449ZM154.875 23.12C153.503 23.12 152.293 23.5122 151.332 24.3634L152.658 25.8606C153.19 25.3891 153.9 25.12 154.875 25.12V23.12ZM151.344 24.3527C150.379 25.18 149.82 26.3327 149.599 27.7053L151.574 28.0227C151.737 27.0059 152.117 26.324 152.646 25.8713L151.344 24.3527ZM149.599 27.7073L148.863 32.3473L150.838 32.6607L151.574 28.0207L149.599 27.7073ZM148.863 32.348C148.647 33.7156 148.806 34.9828 149.584 35.9478L151.141 34.6922C150.853 34.3345 150.67 33.7244 150.839 32.66L148.863 32.348ZM149.607 35.9749C150.417 36.909 151.608 37.28 152.955 37.28V35.28C151.955 35.28 151.418 35.011 151.118 34.6651L149.607 35.9749ZM152.955 37.28C154.219 37.28 155.351 36.9546 156.282 36.2424L155.067 34.6536C154.548 35.0507 153.867 35.28 152.955 35.28V37.28ZM156.271 36.2507C157.234 35.5357 157.841 34.5274 158.121 33.3034L156.172 32.8566C155.983 33.6806 155.609 34.2509 155.078 34.6453L156.271 36.2507ZM157.147 34.08H160.603V32.08H157.147V34.08ZM159.622 32.8839C159.283 34.5807 158.478 35.8883 157.21 36.8629L158.428 38.4491C160.103 37.1623 161.155 35.4193 161.583 33.2761L159.622 32.8839ZM157.211 36.8616C155.962 37.8174 154.403 38.32 152.475 38.32V40.32C154.77 40.32 156.775 39.7133 158.426 38.4504L157.211 36.8616ZM164.782 39L163.795 38.8431L163.611 40H164.782V39ZM168.494 15.64V14.64H167.641L167.507 15.4831L168.494 15.64ZM171.95 15.64L172.938 15.7976L173.123 14.64H171.95V15.64ZM169.902 28.472L168.915 28.3144L168.73 29.472H169.902V28.472ZM172.686 28.472V29.472H173.158L173.458 29.1077L172.686 28.472ZM178.51 21.4V20.4H178.038L177.738 20.7643L178.51 21.4ZM182.478 21.4L183.255 22.0293L184.575 20.4H182.478V21.4ZM175.534 29.976L174.757 29.3467L174.362 29.8347L174.63 30.4026L175.534 29.976ZM179.79 39V40H181.368L180.695 38.5734L179.79 39ZM175.918 39L175.012 39.4225L175.281 40H175.918V39ZM172.398 31.448L173.305 31.0255L173.035 30.448H172.398V31.448ZM169.454 31.448V30.448H168.602L168.467 31.289L169.454 31.448ZM168.238 39V40H169.09L169.226 39.159L168.238 39ZM165.77 39.1569L169.482 15.7969L167.507 15.4831L163.795 38.8431L165.77 39.1569ZM168.494 16.64H171.95V14.64H168.494V16.64ZM170.963 15.4824L168.915 28.3144L170.89 28.6296L172.938 15.7976L170.963 15.4824ZM169.902 29.472H172.686V27.472H169.902V29.472ZM173.458 29.1077L179.282 22.0357L177.738 20.7643L171.914 27.8363L173.458 29.1077ZM178.51 22.4H182.478V20.4H178.51V22.4ZM181.701 20.7707L174.757 29.3467L176.311 30.6053L183.255 22.0293L181.701 20.7707ZM174.63 30.4026L178.886 39.4266L180.695 38.5734L176.439 29.5494L174.63 30.4026ZM179.79 38H175.918V40H179.79V38ZM176.825 38.5775L173.305 31.0255L171.492 31.8705L175.012 39.4225L176.825 38.5775ZM172.398 30.448H169.454V32.448H172.398V30.448ZM168.467 31.289L167.251 38.841L169.226 39.159L170.442 31.607L168.467 31.289ZM168.238 38H164.782V40H168.238V38ZM185.89 37.496L185.139 38.1563L185.145 38.1632L185.151 38.17L185.89 37.496ZM184.77 32.504L185.757 32.6651L185.758 32.6595L184.77 32.504ZM186.402 22.136L185.415 21.9765L185.414 21.9805L186.402 22.136ZM189.122 17.144L188.49 16.3685L188.485 16.373L189.122 17.144ZM199.554 17.176L198.803 17.8363L198.809 17.8432L198.815 17.85L199.554 17.176ZM200.706 22.136V23.136H201.556L201.693 22.2971L200.706 22.136ZM197.25 22.136L196.262 21.98L196.079 23.136H197.25V22.136ZM196.706 19.352L195.938 19.9922L195.944 19.9996L195.95 20.0069L196.706 19.352ZM191.266 19.352L190.626 18.5837L190.615 18.5927L191.266 19.352ZM189.858 22.104L188.87 21.9453L188.87 21.949L189.858 22.104ZM188.226 32.504L189.214 32.66L189.214 32.659L188.226 32.504ZM188.738 35.288L187.97 35.9282L187.976 35.9356L187.982 35.9429L188.738 35.288ZM194.21 35.288L193.559 34.5287L194.21 35.288ZM195.618 32.504V31.504H194.763L194.63 32.348L195.618 32.504ZM199.074 32.504L200.062 32.6561L200.239 31.504H199.074V32.504ZM197.602 36.12L196.802 35.5199L196.794 35.5308L197.602 36.12ZM194.754 38.488L195.188 39.389L194.754 38.488ZM190.85 38.32C188.835 38.32 187.491 37.7672 186.629 36.822L185.151 38.17C186.507 39.6568 188.47 40.32 190.85 40.32V38.32ZM186.641 36.8357C185.804 35.8843 185.449 34.5517 185.757 32.6651L183.783 32.3429C183.408 34.6377 183.799 36.633 185.139 38.1563L186.641 36.8357ZM185.758 32.6595L187.39 22.2915L185.414 21.9805L183.782 32.3485L185.758 32.6595ZM187.389 22.2955C187.697 20.3922 188.497 18.9576 189.759 17.915L188.485 16.373C186.803 17.7624 185.79 19.6558 185.415 21.9765L187.389 22.2955ZM189.753 17.9194C191.043 16.8689 192.656 16.32 194.658 16.32V14.32C192.265 14.32 190.187 14.9871 188.49 16.3686L189.753 17.9194ZM194.658 16.32C196.644 16.32 197.961 16.8787 198.803 17.8363L200.305 16.5157C198.971 14.9986 197.024 14.32 194.658 14.32V16.32ZM198.815 17.85C199.662 18.778 200.026 20.0917 199.719 21.9749L201.693 22.2971C202.068 19.999 201.665 18.006 200.293 16.502L198.815 17.85ZM200.706 21.136H197.25V23.136H200.706V21.136ZM198.238 22.292C198.454 20.9206 198.284 19.6463 197.461 18.6971L195.95 20.0069C196.237 20.3377 196.429 20.9194 196.262 21.98L198.238 22.292ZM197.474 18.7118C196.686 17.7658 195.507 17.392 194.178 17.392V19.392C195.152 19.392 195.659 19.6582 195.938 19.9922L197.474 18.7118ZM194.178 17.392C192.813 17.392 191.604 17.7688 190.626 18.5838L191.906 20.1202C192.464 19.6552 193.196 19.392 194.178 19.392V17.392ZM190.615 18.5927C189.65 19.42 189.091 20.5727 188.87 21.9453L190.845 22.2627C191.008 21.2459 191.388 20.564 191.917 20.1113L190.615 18.5927ZM188.87 21.949L187.238 32.349L189.214 32.659L190.846 22.259L188.87 21.949ZM187.238 32.348C187.023 33.7106 187.178 34.9783 187.97 35.9282L189.506 34.6478C189.231 34.3177 189.045 33.7294 189.214 32.66L187.238 32.348ZM187.982 35.9429C188.792 36.877 189.983 37.248 191.33 37.248V35.248C190.33 35.248 189.793 34.979 189.493 34.6331L187.982 35.9429ZM191.33 37.248C192.693 37.248 193.899 36.8714 194.861 36.0473L193.559 34.5287C193.027 34.9846 192.313 35.248 191.33 35.248V37.248ZM194.861 36.0473C195.83 35.2167 196.386 34.0497 196.606 32.66L194.63 32.348C194.465 33.3903 194.083 34.0793 193.559 34.5287L194.861 36.0473ZM195.618 33.504H199.074V31.504H195.618V33.504ZM198.085 32.3519C197.895 33.592 197.462 34.6399 196.802 35.52L198.402 36.72C199.278 35.5521 199.826 34.1893 200.062 32.6561L198.085 32.3519ZM196.794 35.5308C196.145 36.4204 195.325 37.1032 194.32 37.587L195.188 39.389C196.487 38.7635 197.565 37.8676 198.41 36.7092L196.794 35.5308ZM194.32 37.587C193.32 38.0682 192.171 38.32 190.85 38.32V40.32C192.43 40.32 193.883 40.0171 195.188 39.389L194.32 37.587ZM205.045 37.496L204.288 38.149L204.293 38.1554L205.045 37.496ZM203.957 32.504L204.944 32.6651L204.946 32.655L203.957 32.504ZM204.661 27.896L203.674 27.7349L203.673 27.745L204.661 27.896ZM207.349 22.936L207.992 23.7024L207.993 23.7015L207.349 22.936ZM217.685 22.904L216.933 23.5634L217.685 22.904ZM218.805 27.864L219.793 28.0207L219.794 28.0153L218.805 27.864ZM218.069 32.504L219.056 32.6651L219.057 32.6607L218.069 32.504ZM215.349 37.496L215.992 38.2624L215.993 38.2615L215.349 37.496ZM213.205 35.32L213.867 36.0698L213.205 35.32ZM214.613 32.504L215.599 32.6739L215.6 32.6645L215.602 32.655L214.613 32.504ZM215.317 27.896L214.329 27.7427L214.329 27.745L215.317 27.896ZM214.837 25.08L215.618 24.4553L214.837 25.08ZM209.525 25.08L208.864 24.3302L209.525 25.08ZM208.117 27.896L207.132 27.7261L207.13 27.7355L207.129 27.745L208.117 27.896ZM207.413 32.504L208.401 32.6573L208.402 32.655L207.413 32.504ZM207.893 35.32L208.674 34.6953L207.893 35.32ZM209.909 38.32C207.917 38.32 206.614 37.7683 205.797 36.8366L204.293 38.1554C205.61 39.6557 207.55 40.32 209.909 40.32V38.32ZM205.803 36.8431C204.983 35.8925 204.635 34.5569 204.944 32.6651L202.97 32.3429C202.597 34.6325 202.974 36.6248 204.288 38.1489L205.803 36.8431ZM204.946 32.655L205.65 28.047L203.673 27.745L202.969 32.353L204.946 32.655ZM205.648 28.0571C205.956 26.1729 206.747 24.7459 207.992 23.7024L206.707 22.1696C205.05 23.5581 204.049 25.4378 203.674 27.7349L205.648 28.0571ZM207.993 23.7015C209.261 22.6355 210.848 22.08 212.821 22.08V20.08C210.443 20.08 208.382 20.7618 206.706 22.1705L207.993 23.7015ZM212.821 22.08C214.814 22.08 216.116 22.6317 216.933 23.5634L218.437 22.2446C217.121 20.7443 215.181 20.08 212.821 20.08V22.08ZM216.933 23.5634C217.749 24.4934 218.107 25.8179 217.817 27.7127L219.794 28.0153C220.144 25.7288 219.755 23.7466 218.437 22.2446L216.933 23.5634ZM217.818 27.7073L217.082 32.3473L219.057 32.6607L219.793 28.0207L217.818 27.7073ZM217.082 32.3429C216.775 34.2232 215.976 35.6631 214.706 36.7305L215.993 38.2615C217.667 36.8543 218.681 34.9661 219.056 32.6651L217.082 32.3429ZM214.707 36.7296C213.463 37.7725 211.887 38.32 209.909 38.32V40.32C212.283 40.32 214.334 39.6515 215.992 38.2624L214.707 36.7296ZM210.389 37.28C211.736 37.28 212.925 36.9007 213.867 36.0698L212.544 34.5702C212.035 35.0193 211.347 35.28 210.389 35.28V37.28ZM213.867 36.0698C214.808 35.2392 215.358 34.0681 215.599 32.6739L213.628 32.3341C213.442 33.4145 213.053 34.1208 212.544 34.5702L213.867 36.0698ZM215.602 32.655L216.306 28.047L214.329 27.745L213.625 32.353L215.602 32.655ZM216.305 28.0493C216.518 26.6804 216.38 25.4073 215.618 24.4553L214.056 25.7047C214.319 26.0327 214.501 26.6369 214.329 27.7427L216.305 28.0493ZM215.618 24.4553C214.848 23.4926 213.667 23.12 212.341 23.12V25.12C213.319 25.12 213.803 25.3874 214.056 25.7047L215.618 24.4553ZM212.341 23.12C210.995 23.12 209.805 23.4993 208.864 24.3302L210.187 25.8298C210.696 25.3807 211.384 25.12 212.341 25.12V23.12ZM208.864 24.3302C207.922 25.1608 207.372 26.3319 207.132 27.7261L209.103 28.0659C209.289 26.9855 209.678 26.2792 210.187 25.8298L208.864 24.3302ZM207.129 27.745L206.425 32.353L208.402 32.655L209.106 28.047L207.129 27.745ZM206.425 32.3507C206.213 33.7196 206.351 34.9927 207.112 35.9447L208.674 34.6953C208.412 34.3673 208.23 33.7631 208.401 32.6573L206.425 32.3507ZM207.112 35.9447C207.883 36.9074 209.063 37.28 210.389 37.28V35.28C209.411 35.28 208.928 35.0126 208.674 34.6953L207.112 35.9447ZM223.913 37.56L223.092 38.1315L223.098 38.1399L223.104 38.1482L223.913 37.56ZM223.145 32.696L224.133 32.8504L224.133 32.849L223.145 32.696ZM223.913 27.736L222.925 27.5816L222.925 27.583L223.913 27.736ZM233.801 22.072L233.127 22.811L233.132 22.8158L233.138 22.8206L233.801 22.072ZM234.889 24.76L233.889 24.7411L233.87 25.76H234.889V24.76ZM234.953 24.76V25.76H235.822L235.943 24.8993L234.953 24.76ZM235.529 20.664L234.542 20.5006L234.54 20.5127L234.538 20.5247L235.529 20.664ZM236.361 15.64V14.64H235.513L235.374 15.4766L236.361 15.64ZM239.817 15.64L240.804 15.7969L240.988 14.64H239.817V15.64ZM236.105 39V40H236.958L237.092 39.1569L236.105 39ZM232.681 39L231.694 38.8402L231.506 40H232.681V39ZM233.225 35.64L234.212 35.7998L234.4 34.64H233.225V35.64ZM233.161 35.64V34.64H232.414L232.202 35.3559L233.161 35.64ZM231.241 38.36L231.804 39.1862L231.81 39.1819L231.817 39.1775L231.241 38.36ZM232.265 35.32L231.602 34.5714L231.596 34.5762L231.591 34.581L232.265 35.32ZM233.673 32.504L234.661 32.66L234.661 32.655L233.673 32.504ZM234.377 27.896L233.392 27.7202L233.39 27.7326L233.388 27.745L234.377 27.896ZM233.897 25.112L233.109 25.7276L233.113 25.7337L233.118 25.7398L233.897 25.112ZM228.713 25.08L228.039 24.341L228.713 25.08ZM227.337 27.896L226.349 27.74L226.348 27.745L227.337 27.896ZM226.633 32.504L227.618 32.6739L227.62 32.6645L227.621 32.655L226.633 32.504ZM227.081 35.352L226.29 35.9642L226.295 35.9705L226.3 35.9767L227.081 35.352ZM227.849 38.32C226.319 38.32 225.344 37.8283 224.721 36.9718L223.104 38.1482C224.188 39.6383 225.837 40.32 227.849 40.32V38.32ZM224.733 36.9885C224.101 36.0805 223.836 34.7519 224.133 32.8504L222.157 32.5416C221.814 34.7361 222.06 36.6501 223.092 38.1315L224.733 36.9885ZM224.133 32.849L224.901 27.889L222.925 27.583L222.157 32.543L224.133 32.849ZM224.901 27.8904C225.194 26.0122 225.893 24.6056 226.943 23.5914L225.554 22.1526C224.13 23.5277 223.271 25.3638 222.925 27.5816L224.901 27.8904ZM226.943 23.5914C227.988 22.5826 229.241 22.08 230.761 22.08V20.08C228.739 20.08 226.984 20.7721 225.554 22.1526L226.943 23.5914ZM230.761 22.08C231.896 22.08 232.639 22.3661 233.127 22.811L234.475 21.333C233.512 20.4552 232.228 20.08 230.761 20.08V22.08ZM233.138 22.8206C233.634 23.2605 233.906 23.8595 233.889 24.7411L235.889 24.7789C235.915 23.3992 235.46 22.2062 234.464 21.3234L233.138 22.8206ZM234.889 25.76H234.953V23.76H234.889V25.76ZM235.943 24.8993L236.519 20.8033L234.538 20.5247L233.962 24.6207L235.943 24.8993ZM236.515 20.8274L237.347 15.8034L235.374 15.4766L234.542 20.5006L236.515 20.8274ZM236.361 16.64H239.817V14.64H236.361V16.64ZM238.829 15.4831L235.117 38.8431L237.092 39.1569L240.804 15.7969L238.829 15.4831ZM236.105 38H232.681V40H236.105V38ZM233.668 39.1598L234.212 35.7998L232.238 35.4802L231.694 38.8402L233.668 39.1598ZM233.225 34.64H233.161V36.64H233.225V34.64ZM232.202 35.3559C231.921 36.3029 231.41 37.0172 230.665 37.5425L231.817 39.1775C232.948 38.3802 233.717 37.2811 234.12 35.9241L232.202 35.3559ZM230.677 37.5338C229.931 38.0429 229.004 38.32 227.849 38.32V40.32C229.339 40.32 230.673 39.9571 231.804 39.1862L230.677 37.5338ZM229.545 37.312C230.853 37.312 232.008 36.9069 232.939 36.059L231.591 34.581C231.07 35.0557 230.413 35.312 229.545 35.312V37.312ZM232.928 36.0686C233.886 35.2199 234.441 34.0498 234.661 32.66L232.685 32.348C232.52 33.3902 232.137 34.0974 231.602 34.5714L232.928 36.0686ZM234.661 32.655L235.365 28.047L233.388 27.745L232.684 32.353L234.661 32.655ZM235.361 28.0718C235.603 26.7179 235.458 25.4543 234.675 24.4842L233.118 25.7398C233.403 26.0923 233.577 26.6848 233.392 27.7202L235.361 28.0718ZM234.685 24.4964C233.914 23.5102 232.774 23.088 231.465 23.088V25.088C232.332 25.088 232.812 25.3485 233.109 25.7276L234.685 24.4964ZM231.465 23.088C230.141 23.088 228.973 23.4897 228.039 24.341L229.387 25.819C229.903 25.3477 230.57 25.088 231.465 25.088V23.088ZM228.039 24.341C227.107 25.1909 226.567 26.358 226.349 27.74L228.325 28.052C228.49 27.002 228.868 26.2917 229.387 25.819L228.039 24.341ZM226.348 27.745L225.644 32.353L227.621 32.655L228.325 28.047L226.348 27.745ZM225.647 32.3341C225.41 33.7091 225.536 34.9899 226.29 35.9642L227.871 34.7398C227.602 34.3915 227.429 33.7736 227.618 32.6739L225.647 32.3341ZM226.3 35.9767C227.067 36.9352 228.232 37.312 229.545 37.312V35.312C228.596 35.312 228.119 35.0488 227.862 34.7273L226.3 35.9767ZM243.452 37.464L242.689 38.1105L242.695 38.1169L243.452 37.464ZM242.332 32.504L243.32 32.6584L243.321 32.655L242.332 32.504ZM243.036 27.896L242.051 27.7266L242.049 27.7358L242.048 27.745L243.036 27.896ZM244.476 24.312L243.668 23.7228L243.66 23.734L244.476 24.312ZM247.324 21.944L247.758 22.845L247.765 22.8418L247.771 22.8384L247.324 21.944ZM256.028 22.968L255.265 23.6145L255.271 23.6215L255.277 23.6283L256.028 22.968ZM257.148 27.896L256.162 27.7316L256.16 27.7447L257.148 27.896ZM256.668 31.032V32.032H257.527L257.657 31.1833L256.668 31.032ZM245.916 31.032V30.032H245.075L244.931 30.8607L245.916 31.032ZM245.66 32.504L244.675 32.3326L244.673 32.346L245.66 32.504ZM252.604 34.424V33.424H251.927L251.676 34.0526L252.604 34.424ZM256.028 34.424L256.982 34.7238L257.391 33.424H256.028V34.424ZM253.212 38.008L253.74 38.8575L253.749 38.8517L253.212 38.008ZM246.396 27.896L245.409 27.7342L245.409 27.738L246.396 27.896ZM246.268 28.696L245.281 28.538L245.095 29.7011L246.273 29.696L246.268 28.696ZM253.692 28.664L253.697 29.664L254.546 29.6603L254.68 28.822L253.692 28.664ZM253.82 27.864L254.808 28.022L254.81 28.01L253.82 27.864ZM253.34 24.888L252.52 25.4598L252.53 25.4741L252.54 25.488L253.34 24.888ZM247.804 24.888L247.118 24.1604L247.113 24.1654L247.108 24.1704L247.804 24.888ZM248.284 38.32C246.322 38.32 245.03 37.763 244.21 36.8111L242.695 38.1169C244.008 39.6397 245.937 40.32 248.284 40.32V38.32ZM244.215 36.8175C243.383 35.8352 243.033 34.4988 243.32 32.6584L241.344 32.3496C240.992 34.6052 241.388 36.5755 242.689 38.1105L244.215 36.8175ZM243.321 32.655L244.025 28.047L242.048 27.745L241.344 32.353L243.321 32.655ZM244.022 28.0654C244.234 26.8317 244.662 25.78 245.292 24.89L243.66 23.734C242.84 24.892 242.308 26.2296 242.051 27.7266L244.022 28.0654ZM245.284 24.9012C245.933 24.0116 246.753 23.3288 247.758 22.845L246.89 21.043C245.591 21.6685 244.513 22.5644 243.668 23.7228L245.284 24.9012ZM247.771 22.8384C248.77 22.3392 249.905 22.08 251.196 22.08V20.08C249.629 20.08 248.183 20.3968 246.877 21.0496L247.771 22.8384ZM251.196 22.08C253.153 22.08 254.443 22.6443 255.265 23.6145L256.791 22.3215C255.48 20.7744 253.549 20.08 251.196 20.08V22.08ZM255.277 23.6283C256.117 24.5831 256.468 25.8959 256.162 27.7316L258.135 28.0604C258.511 25.8001 258.116 23.8276 256.779 22.3077L255.277 23.6283ZM256.16 27.7447L255.68 30.8807L257.657 31.1833L258.137 28.0473L256.16 27.7447ZM256.668 30.032H245.916V32.032H256.668V30.032ZM244.931 30.8607L244.675 32.3327L246.645 32.6753L246.901 31.2033L244.931 30.8607ZM244.673 32.346C244.441 33.7932 244.561 35.1305 245.326 36.1171C246.11 37.1277 247.361 37.504 248.764 37.504V35.504C247.672 35.504 247.157 35.2137 246.906 34.8909C246.637 34.5441 246.453 33.8815 246.648 32.662L244.673 32.346ZM248.764 37.504C249.874 37.504 250.874 37.3134 251.705 36.8633C252.556 36.4022 253.171 35.6995 253.533 34.7954L251.676 34.0526C251.483 34.5352 251.181 34.8724 250.752 35.1047C250.303 35.3479 249.66 35.504 248.764 35.504V37.504ZM252.604 35.424H256.028V33.424H252.604V35.424ZM255.074 34.1242C254.68 35.3772 253.899 36.3858 252.675 37.1643L253.749 38.8517C255.342 37.8382 256.437 36.4575 256.982 34.7238L255.074 34.1242ZM252.685 37.1586C251.455 37.9222 250 38.32 248.284 38.32V40.32C250.323 40.32 252.153 39.8431 253.74 38.8574L252.685 37.1586ZM245.409 27.738L245.281 28.538L247.256 28.854L247.384 28.054L245.409 27.738ZM246.273 29.696L253.697 29.664L253.688 27.664L246.264 27.696L246.273 29.696ZM254.68 28.822L254.808 28.022L252.833 27.706L252.705 28.506L254.68 28.822ZM254.81 28.01C255.02 26.5846 254.881 25.2755 254.14 24.288L252.54 25.488C252.824 25.8658 253.005 26.5408 252.831 27.718L254.81 28.01ZM254.161 24.3162C253.412 23.2428 252.177 22.832 250.78 22.832V24.832C251.816 24.832 252.287 25.1252 252.52 25.4598L254.161 24.3162ZM250.78 22.832C249.343 22.832 248.087 23.2467 247.118 24.1604L248.49 25.6156C249.015 25.1213 249.742 24.832 250.78 24.832V22.832ZM247.108 24.1704C246.188 25.0636 245.647 26.2857 245.409 27.7342L247.383 28.0578C247.572 26.9036 247.97 26.1204 248.501 25.6056L247.108 24.1704ZM260.816 37.08L259.827 36.9307L259.553 38.7453L261.226 37.9918L260.816 37.08ZM261.328 33.688L260.922 32.7741L260.421 32.9966L260.339 33.5387L261.328 33.688ZM271.632 29.112L271.238 28.1928L271.226 28.1981L271.632 29.112ZM272.912 28.632L273.213 29.5856L272.912 28.632ZM273.84 28.376L274.036 29.3566L274.127 27.4182L273.84 28.376ZM272.976 28.088L273.309 27.145L273.309 27.145L272.976 28.088ZM271.888 27.608L272.356 26.7242L272.346 26.7194L271.888 27.608ZM263.024 23.032L262.036 22.874L261.922 23.5886L262.565 23.9206L263.024 23.032ZM263.536 19.832L264 18.9465L262.768 18.3L262.548 19.674L263.536 19.832ZM276.528 26.648L277.515 26.8053L277.628 26.0961L276.992 25.7625L276.528 26.648ZM275.952 30.264L276.362 31.1758L276.854 30.9542L276.939 30.4213L275.952 30.264ZM261.805 37.2293L262.317 33.8373L260.339 33.5387L259.827 36.9307L261.805 37.2293ZM261.734 34.6019L272.038 30.0259L271.226 28.1981L260.922 32.7741L261.734 34.6019ZM272.026 30.0311C272.448 29.8503 272.843 29.7023 273.213 29.5856L272.611 27.6784C272.17 27.8177 271.712 27.9897 271.238 28.1929L272.026 30.0311ZM273.213 29.5856C273.61 29.4603 273.877 29.3883 274.036 29.3566L273.644 27.3954C273.376 27.449 273.025 27.5477 272.611 27.6784L273.213 29.5856ZM274.127 27.4182C273.936 27.3609 273.665 27.2709 273.309 27.145L272.643 29.031C273.012 29.1611 273.317 29.2631 273.552 29.3338L274.127 27.4182ZM273.309 27.145C272.995 27.0344 272.678 26.8947 272.356 26.7242L271.42 28.4918C271.823 28.7053 272.231 28.8856 272.643 29.031L273.309 27.145ZM272.346 26.7194L263.482 22.1434L262.565 23.9206L271.429 28.4966L272.346 26.7194ZM264.011 23.19L264.523 19.99L262.548 19.674L262.036 22.874L264.011 23.19ZM263.071 20.7175L276.063 27.5335L276.992 25.7625L264 18.9465L263.071 20.7175ZM275.54 26.4907L274.964 30.1067L276.939 30.4213L277.515 26.8053L275.54 26.4907ZM275.541 29.3522L260.405 36.1682L261.226 37.9918L276.362 31.1758L275.541 29.3522Z" fill="black"/>
<path d="M67.4688 44.76V43.76H66.4688V44.76H67.4688ZM278.544 44.76H279.544V43.76H278.544V44.76ZM278.544 46.36V47.36H279.544V46.36H278.544ZM67.4688 46.36H66.4688V47.36H67.4688V46.36ZM67.4688 45.76H278.544V43.76H67.4688V45.76ZM277.544 44.76V46.36H279.544V44.76H277.544ZM278.544 45.36H67.4688V47.36H278.544V45.36ZM68.4688 46.36V44.76H66.4688V46.36H68.4688Z" fill="black"/>
</g>
<defs>
<filter id="filter0_d_17_422" x="66.0287" y="15.3201" width="214.499" height="32" filterUnits="userSpaceOnUse" color-interpolation-filters="sRGB">
<feFlood flood-opacity="0" result="BackgroundImageFix"/>
<feColorMatrix in="SourceAlpha" type="matrix" values="0 0 0 0 0 0 0 0 0 0 0 0 0 0 0 0 0 0 127 0" result="hardAlpha"/>
<feOffset dy="4"/>
<feGaussianBlur stdDeviation="2"/>
<feComposite in2="hardAlpha" operator="out"/>
<feColorMatrix type="matrix" values="0 0 0 0 0 0 0 0 0 0 0 0 0 0 0 0 0 0 0.25 0"/>
<feBlend mode="normal" in2="BackgroundImageFix" result="effect1_dropShadow_17_422"/>
<feBlend mode="normal" in="SourceGraphic" in2="effect1_dropShadow_17_422" result="shape"/>
</filter>
</defs>
</svg>
