<svg width="341" height="75" viewBox="0 0 341 75" fill="none" xmlns="http://www.w3.org/2000/svg">
<path d="M26.125 9.375V14.0625M14.25 25.7812H9.5M66.5 25.7812H61.75M14.25 37.5H9.5M66.5 37.5H61.75M14.25 49.2188H9.5M66.5 49.2188H61.75M26.125 60.9375V65.625M38 9.375V14.0625M38 60.9375V65.625M49.875 9.375V14.0625M49.875 60.9375V65.625M21.375 60.9375H54.625C56.5147 60.9375 58.3269 60.1967 59.6631 58.8781C60.9993 57.5595 61.75 55.7711 61.75 53.9062V21.0938C61.75 19.2289 60.9993 17.4405 59.6631 16.1219C58.3269 14.8033 56.5147 14.0625 54.625 14.0625H21.375C19.4853 14.0625 17.6731 14.8033 16.3369 16.1219C15.0007 17.4405 14.25 19.2289 14.25 21.0938V53.9062C14.25 55.7711 15.0007 57.5595 16.3369 58.8781C17.6731 60.1967 19.4853 60.9375 21.375 60.9375ZM23.75 23.4375H52.25V51.5625H23.75V23.4375Z" stroke="white" stroke-width="4" stroke-linecap="round" stroke-linejoin="round"/>
<g filter="url(#filter0_d_12_191)">
<path d="M93.7373 44.84L79.1573 37.172L79.7693 33.104L96.7973 25.436L96.2213 29.288L84.6293 34.436C84.1253 34.652 83.6453 34.832 83.1893 34.976C82.7333 35.12 82.3853 35.216 82.1453 35.264C82.3853 35.336 82.7093 35.444 83.1173 35.588C83.5493 35.732 83.9693 35.912 84.3773 36.128L94.3493 41.276L93.7373 44.84ZM99.3393 47L103.515 20.72H111.255C113.727 20.72 115.575 21.332 116.799 22.556C118.047 23.756 118.503 25.4 118.167 27.488C117.951 28.976 117.363 30.224 116.403 31.232C115.467 32.216 114.315 32.852 112.947 33.14C114.387 33.452 115.467 34.172 116.187 35.3C116.907 36.428 117.123 37.868 116.835 39.62C116.475 41.876 115.467 43.676 113.811 45.02C112.155 46.34 110.079 47 107.583 47H99.3393ZM105.531 31.736H109.455C110.727 31.736 111.795 31.4 112.659 30.728C113.523 30.032 114.051 29.084 114.243 27.884C114.435 26.708 114.207 25.784 113.559 25.112C112.935 24.416 111.987 24.068 110.715 24.068H106.755L105.531 31.736ZM103.659 43.652H107.799C109.191 43.652 110.355 43.28 111.291 42.536C112.227 41.768 112.803 40.736 113.019 39.44C113.211 38.096 112.959 37.016 112.263 36.2C111.591 35.384 110.559 34.976 109.167 34.976H105.027L103.659 43.652ZM131.293 47C129.421 47 128.017 46.46 127.081 45.38C126.145 44.276 125.821 42.812 126.109 40.988L128.737 24.248H122.761L123.337 20.72H133.201L129.997 40.988C129.877 41.756 129.997 42.368 130.357 42.824C130.717 43.256 131.257 43.472 131.977 43.472H138.385L137.845 47H131.293ZM148.775 47.36C146.783 47.36 145.307 46.7 144.347 45.38C143.387 44.036 143.099 42.212 143.483 39.908L144.347 34.328C144.707 32.024 145.583 30.2 146.975 28.856C148.367 27.512 150.059 26.84 152.051 26.84C153.515 26.84 154.655 27.212 155.471 27.956C156.311 28.7 156.719 29.708 156.695 30.98H156.767L157.307 27.2H161.195L158.063 47H154.211L154.823 43.22H154.751C154.367 44.516 153.647 45.536 152.591 46.28C151.535 47 150.263 47.36 148.775 47.36ZM150.683 43.976C151.907 43.976 152.927 43.604 153.743 42.86C154.583 42.116 155.111 41.06 155.327 39.692L156.119 34.508C156.335 33.164 156.143 32.12 155.543 31.376C154.967 30.608 154.067 30.224 152.843 30.224C151.595 30.224 150.563 30.596 149.747 31.34C148.931 32.084 148.415 33.14 148.199 34.508L147.407 39.692C147.191 41.084 147.359 42.152 147.911 42.896C148.487 43.616 149.411 43.976 150.683 43.976ZM171.909 47.36C169.437 47.36 167.577 46.676 166.329 45.308C165.105 43.94 164.685 42.068 165.069 39.692L165.861 34.508C166.245 32.132 167.277 30.26 168.957 28.892C170.637 27.524 172.713 26.84 175.185 26.84C177.561 26.84 179.361 27.464 180.585 28.712C181.833 29.96 182.337 31.664 182.097 33.824H178.209C178.305 32.696 178.029 31.82 177.381 31.196C176.757 30.572 175.833 30.26 174.609 30.26C173.289 30.26 172.209 30.632 171.369 31.376C170.529 32.096 170.001 33.128 169.785 34.472L168.957 39.692C168.741 41.06 168.933 42.116 169.533 42.86C170.157 43.58 171.129 43.94 172.449 43.94C173.673 43.94 174.693 43.628 175.509 43.004C176.349 42.38 176.901 41.492 177.165 40.34H181.053C180.621 42.5 179.577 44.216 177.921 45.488C176.289 46.736 174.285 47.36 171.909 47.36ZM185.755 47L189.931 20.72H193.819L191.515 35.156H194.647L201.199 27.2H205.663L197.851 36.848L202.639 47H198.283L194.323 38.504H191.011L189.643 47H185.755ZM215.081 47.36C212.609 47.36 210.749 46.676 209.501 45.308C208.277 43.916 207.857 42.044 208.241 39.692L210.077 28.028C210.461 25.652 211.481 23.78 213.137 22.412C214.817 21.044 216.893 20.36 219.365 20.36C221.813 20.36 223.649 21.056 224.873 22.448C226.121 23.816 226.553 25.676 226.169 28.028H222.281C222.497 26.66 222.293 25.616 221.669 24.896C221.069 24.176 220.121 23.816 218.825 23.816C217.505 23.816 216.413 24.176 215.549 24.896C214.709 25.616 214.181 26.648 213.965 27.992L212.129 39.692C211.913 41.06 212.105 42.104 212.705 42.824C213.329 43.544 214.301 43.904 215.621 43.904C216.941 43.904 218.021 43.544 218.861 42.824C219.701 42.104 220.229 41.06 220.445 39.692H224.333C224.093 41.252 223.541 42.608 222.677 43.76C221.837 44.912 220.769 45.8 219.473 46.424C218.177 47.048 216.713 47.36 215.081 47.36ZM236.523 47.36C234.075 47.36 232.251 46.676 231.051 45.308C229.851 43.916 229.443 42.044 229.827 39.692L230.619 34.508C231.003 32.156 232.011 30.296 233.643 28.928C235.299 27.536 237.351 26.84 239.799 26.84C242.247 26.84 244.071 27.524 245.271 28.892C246.471 30.26 246.891 32.12 246.531 34.472L245.703 39.692C245.319 42.044 244.299 43.916 242.643 45.308C241.011 46.676 238.971 47.36 236.523 47.36ZM237.063 43.94C238.359 43.94 239.415 43.58 240.231 42.86C241.047 42.14 241.575 41.084 241.815 39.692L242.607 34.508C242.823 33.116 242.643 32.06 242.067 31.34C241.491 30.62 240.555 30.26 239.259 30.26C237.963 30.26 236.907 30.62 236.091 31.34C235.275 32.06 234.747 33.116 234.507 34.508L233.715 39.692C233.499 41.084 233.679 42.14 234.255 42.86C234.831 43.58 235.767 43.94 237.063 43.94ZM256.705 47.36C254.713 47.36 253.237 46.7 252.277 45.38C251.341 44.036 251.053 42.212 251.413 39.908L252.277 34.328C252.637 32.024 253.513 30.2 254.905 28.856C256.297 27.512 257.989 26.84 259.981 26.84C261.445 26.84 262.585 27.212 263.401 27.956C264.241 28.7 264.649 29.708 264.625 30.98H264.697L265.345 26.372L266.281 20.72H270.169L265.993 47H262.141L262.753 43.22H262.681C262.297 44.516 261.577 45.536 260.521 46.28C259.465 47 258.193 47.36 256.705 47.36ZM258.613 43.976C259.837 43.976 260.857 43.604 261.673 42.86C262.513 42.116 263.041 41.06 263.257 39.692L264.049 34.508C264.289 33.164 264.109 32.12 263.509 31.376C262.909 30.608 261.997 30.224 260.773 30.224C259.525 30.224 258.493 30.596 257.677 31.34C256.861 32.084 256.345 33.14 256.129 34.508L255.337 39.692C255.097 41.084 255.265 42.152 255.841 42.896C256.417 43.616 257.341 43.976 258.613 43.976ZM279.695 47.36C277.271 47.36 275.459 46.664 274.259 45.272C273.059 43.856 272.639 41.996 272.999 39.692L273.791 34.508C274.055 32.972 274.595 31.628 275.411 30.476C276.251 29.324 277.319 28.436 278.615 27.812C279.911 27.164 281.363 26.84 282.971 26.84C285.395 26.84 287.207 27.548 288.407 28.964C289.631 30.356 290.051 32.204 289.667 34.508L289.127 38.036H277.031L276.743 39.692C276.263 42.692 277.427 44.192 280.235 44.192C282.491 44.192 283.931 43.412 284.555 41.852H288.407C287.879 43.532 286.823 44.876 285.239 45.884C283.655 46.868 281.807 47.36 279.695 47.36ZM277.571 34.508L277.427 35.408L285.779 35.372L285.923 34.472C286.139 33.008 285.959 31.892 285.383 31.124C284.831 30.332 283.871 29.936 282.503 29.936C281.111 29.936 279.995 30.332 279.155 31.124C278.339 31.916 277.811 33.044 277.571 34.508ZM293.793 44.84L294.369 41.024L305.961 35.876C306.465 35.66 306.945 35.48 307.401 35.336C307.857 35.192 308.205 35.096 308.445 35.048C308.205 34.976 307.881 34.868 307.473 34.724C307.065 34.58 306.657 34.4 306.249 34.184L296.277 29.036L296.853 25.436L311.469 33.104L310.821 37.172L293.793 44.84Z" fill="white"/>
<path d="M76.2773 53.48H313.737V55.28H76.2773V53.48Z" fill="white"/>
<path d="M93.7373 44.84L93.2719 45.7251L94.49 46.3657L94.7229 45.0092L93.7373 44.84ZM79.1573 37.172L78.1685 37.0232L78.0627 37.7262L78.6919 38.0571L79.1573 37.172ZM79.7693 33.104L79.3587 32.1922L78.8616 32.4161L78.7805 32.9552L79.7693 33.104ZM96.7973 25.436L97.7864 25.5839L98.0573 23.7719L96.3867 24.5242L96.7973 25.436ZM96.2213 29.288L96.6272 30.2019L97.1291 29.979L97.2104 29.4359L96.2213 29.288ZM84.6293 34.436L85.0233 35.3552L85.0352 35.3499L84.6293 34.436ZM83.1893 34.976L82.8882 34.0224H82.8882L83.1893 34.976ZM82.1453 35.264L81.9492 34.2834L81.858 36.2218L82.1453 35.264ZM83.1173 35.588L82.7845 36.531L82.7928 36.5339L82.8011 36.5367L83.1173 35.588ZM84.3773 36.128L83.9094 37.0118L83.9186 37.0166L84.3773 36.128ZM94.3493 41.276L95.3349 41.4452L95.4589 40.7234L94.8081 40.3874L94.3493 41.276ZM94.2028 43.9549L79.6228 36.2869L78.6919 38.0571L93.2719 45.7251L94.2028 43.9549ZM80.1462 37.3208L80.7582 33.2528L78.7805 32.9552L78.1685 37.0232L80.1462 37.3208ZM80.1799 34.0158L97.208 26.3478L96.3867 24.5242L79.3587 32.1922L80.1799 34.0158ZM95.8083 25.2881L95.2323 29.1401L97.2104 29.4359L97.7864 25.5839L95.8083 25.2881ZM95.8155 28.3741L84.2235 33.5221L85.0352 35.3499L96.6272 30.2019L95.8155 28.3741ZM84.2354 33.5169C83.7575 33.7217 83.3086 33.8897 82.8882 34.0224L83.4905 35.9296C83.9821 35.7743 84.4932 35.5823 85.0233 35.3551L84.2354 33.5169ZM82.8882 34.0224C82.4408 34.1637 82.1345 34.2464 81.9492 34.2834L82.3415 36.2446C82.6362 36.1856 83.0259 36.0763 83.4905 35.9296L82.8882 34.0224ZM81.858 36.2218C82.0757 36.2871 82.3825 36.3891 82.7845 36.531L83.4502 34.645C83.0362 34.4989 82.695 34.3849 82.4327 34.3062L81.858 36.2218ZM82.8011 36.5367C83.1801 36.663 83.5495 36.8212 83.9095 37.0118L84.8452 35.2442C84.3892 35.0028 83.9185 34.801 83.4336 34.6393L82.8011 36.5367ZM83.9186 37.0166L93.8906 42.1646L94.8081 40.3874L84.8361 35.2394L83.9186 37.0166ZM93.3638 41.1068L92.7518 44.6708L94.7229 45.0092L95.3349 41.4452L93.3638 41.1068ZM99.3393 47L98.3517 46.8431L98.1678 48H99.3393V47ZM103.515 20.72V19.72H102.662L102.528 20.5631L103.515 20.72ZM116.799 22.556L116.092 23.2631L116.099 23.27L116.106 23.2768L116.799 22.556ZM118.167 27.488L117.18 27.3291L117.179 27.3367L117.178 27.3443L118.167 27.488ZM116.403 31.232L115.679 30.5423L115.679 30.5428L116.403 31.232ZM112.947 33.14L112.741 32.1614L112.736 34.1173L112.947 33.14ZM116.187 35.3L115.344 35.838V35.838L116.187 35.3ZM116.835 39.62L115.849 39.4578L115.848 39.4624L116.835 39.62ZM113.811 45.02L114.435 45.802L114.441 45.7965L113.811 45.02ZM105.531 31.736L104.544 31.5784L104.359 32.736H105.531V31.736ZM112.659 30.728L113.273 31.5174L113.28 31.5121L113.287 31.5068L112.659 30.728ZM114.243 27.884L113.256 27.7229L113.256 27.726L114.243 27.884ZM113.559 25.112L112.815 25.7795L112.827 25.7931L112.839 25.8061L113.559 25.112ZM106.755 24.068V23.068H105.902L105.768 23.9104L106.755 24.068ZM103.659 43.652L102.671 43.4962L102.489 44.652H103.659V43.652ZM111.291 42.536L111.914 43.3188L111.92 43.314L111.926 43.3091L111.291 42.536ZM113.019 39.44L114.006 39.6044L114.008 39.5929L114.009 39.5814L113.019 39.44ZM112.263 36.2L111.491 36.8357L111.497 36.8424L111.502 36.8489L112.263 36.2ZM105.027 34.976V33.976H104.173L104.039 34.8202L105.027 34.976ZM100.327 47.1569L104.503 20.8769L102.528 20.5631L98.3517 46.8431L100.327 47.1569ZM103.515 21.72H111.255V19.72H103.515V21.72ZM111.255 21.72C113.576 21.72 115.123 22.2944 116.092 23.2631L117.506 21.8489C116.027 20.3696 113.878 19.72 111.255 19.72V21.72ZM116.106 23.2768C117.064 24.1979 117.477 25.4835 117.18 27.3291L119.155 27.6469C119.53 25.3165 119.03 23.3141 117.492 21.8352L116.106 23.2768ZM117.178 27.3443C116.989 28.6446 116.485 29.6966 115.679 30.5423L117.127 31.9217C118.242 30.7514 118.914 29.3074 119.157 27.6317L117.178 27.3443ZM115.679 30.5428C114.887 31.3755 113.917 31.9139 112.741 32.1614L113.153 34.1185C114.713 33.7901 116.048 33.0565 117.128 31.9212L115.679 30.5428ZM112.736 34.1173C113.944 34.3791 114.783 34.9585 115.344 35.838L117.03 34.762C116.152 33.3855 114.831 32.5249 113.159 32.1627L112.736 34.1173ZM115.344 35.838C115.893 36.6983 116.11 37.868 115.849 39.4578L117.822 39.7822C118.137 37.868 117.921 36.1577 117.03 34.762L115.344 35.838ZM115.848 39.4624C115.524 41.494 114.632 43.0664 113.181 44.2435L114.441 45.7965C116.303 44.2856 117.427 42.258 117.823 39.7776L115.848 39.4624ZM113.188 44.238C111.739 45.3927 109.895 46 107.583 46V48C110.264 48 112.571 47.2873 114.435 45.802L113.188 44.238ZM107.583 46H99.3393V48H107.583V46ZM105.531 32.736H109.455V30.736H105.531V32.736ZM109.455 32.736C110.912 32.736 112.206 32.3473 113.273 31.5174L112.045 29.9386C111.384 30.4527 110.543 30.736 109.455 30.736V32.736ZM113.287 31.5068C114.362 30.6402 115.004 29.4611 115.231 28.042L113.256 27.726C113.099 28.7069 112.684 29.4238 112.032 29.9492L113.287 31.5068ZM115.23 28.0451C115.458 26.6527 115.205 25.3781 114.279 24.4179L112.839 25.8061C113.209 26.1899 113.413 26.7633 113.256 27.7229L115.23 28.0451ZM114.304 24.4445C113.429 23.4685 112.164 23.068 110.715 23.068V25.068C111.81 25.068 112.442 25.3635 112.815 25.7795L114.304 24.4445ZM110.715 23.068H106.755V25.068H110.715V23.068ZM105.768 23.9104L104.544 31.5784L106.519 31.8936L107.743 24.2256L105.768 23.9104ZM103.659 44.652H107.799V42.652H103.659V44.652ZM107.799 44.652C109.378 44.652 110.772 44.2258 111.914 43.3188L110.669 41.7532C109.938 42.3342 109.004 42.652 107.799 42.652V44.652ZM111.926 43.3091C113.065 42.3739 113.754 41.1172 114.006 39.6044L112.033 39.2756C111.853 40.3548 111.389 41.1621 110.657 41.7629L111.926 43.3091ZM114.009 39.5814C114.23 38.0344 113.954 36.6408 113.024 35.5511L111.502 36.8489C111.965 37.3912 112.192 38.1576 112.029 39.2986L114.009 39.5814ZM113.035 35.5643C112.117 34.4493 110.757 33.976 109.167 33.976V35.976C110.362 35.976 111.066 36.3187 111.491 36.8357L113.035 35.5643ZM109.167 33.976H105.027V35.976H109.167V33.976ZM104.039 34.8202L102.671 43.4962L104.647 43.8078L106.015 35.1318L104.039 34.8202ZM127.081 45.38L126.318 46.0267L126.326 46.0349L127.081 45.38ZM126.109 40.988L127.097 41.144L127.097 41.1431L126.109 40.988ZM128.737 24.248L129.725 24.4031L129.906 23.248H128.737V24.248ZM122.761 24.248L121.774 24.0869L121.585 25.248H122.761V24.248ZM123.337 20.72V19.72H122.487L122.35 20.5589L123.337 20.72ZM133.201 20.72L134.189 20.8761L134.372 19.72H133.201V20.72ZM129.997 40.988L129.009 40.8319L129.009 40.8336L129.997 40.988ZM130.357 42.824L129.572 43.4436L129.581 43.454L129.589 43.4642L130.357 42.824ZM138.385 43.472L139.374 43.6233L139.55 42.472H138.385V43.472ZM137.845 47V48H138.704L138.834 47.1513L137.845 47ZM131.293 46C129.616 46 128.528 45.5227 127.837 44.7251L126.326 46.0349C127.506 47.3973 129.227 48 131.293 48V46ZM127.844 44.7333C127.146 43.9097 126.841 42.7657 127.097 41.144L125.121 40.832C124.802 42.8583 125.145 44.6423 126.318 46.0267L127.844 44.7333ZM127.097 41.1431L129.725 24.4031L127.749 24.0929L125.121 40.8329L127.097 41.1431ZM128.737 23.248H122.761V25.248H128.737V23.248ZM123.748 24.4091L124.324 20.8811L122.35 20.5589L121.774 24.0869L123.748 24.4091ZM123.337 21.72H133.201V19.72H123.337V21.72ZM132.213 20.5639L129.009 40.8319L130.985 41.1441L134.189 20.8761L132.213 20.5639ZM129.009 40.8336C128.861 41.7796 128.987 42.7024 129.572 43.4436L131.142 42.2044C131.007 42.0336 130.893 41.7324 130.985 41.1424L129.009 40.8336ZM129.589 43.4642C130.19 44.1852 131.05 44.472 131.977 44.472V42.472C131.464 42.472 131.245 42.3268 131.125 42.1838L129.589 43.4642ZM131.977 44.472H138.385V42.472H131.977V44.472ZM137.397 43.3207L136.857 46.8487L138.834 47.1513L139.374 43.6233L137.397 43.3207ZM137.845 46H131.293V48H137.845V46ZM144.347 45.38L143.533 45.9613L143.538 45.9682L144.347 45.38ZM143.483 39.908L144.47 40.0724L144.471 40.061L143.483 39.908ZM144.347 34.328L143.359 34.1736L143.359 34.175L144.347 34.328ZM155.471 27.956L154.797 28.695L154.803 28.6998L154.808 28.7046L155.471 27.956ZM156.695 30.98L155.695 30.9611L155.676 31.98H156.695V30.98ZM156.767 30.98V31.98H157.634L157.757 31.1214L156.767 30.98ZM157.307 27.2V26.2H156.44L156.317 27.0586L157.307 27.2ZM161.195 27.2L162.183 27.3562L162.366 26.2H161.195V27.2ZM158.063 47V48H158.917L159.051 47.1562L158.063 47ZM154.211 47L153.224 46.8402L153.036 48H154.211V47ZM154.823 43.22L155.81 43.3798L155.998 42.22H154.823V43.22ZM154.751 43.22V42.22H154.004L153.792 42.9359L154.751 43.22ZM152.591 46.28L153.154 47.1062L153.161 47.1019L153.167 47.0975L152.591 46.28ZM153.743 42.86L153.08 42.1114L153.075 42.1162L153.069 42.121L153.743 42.86ZM155.327 39.692L156.315 39.848L156.316 39.843L155.327 39.692ZM156.119 34.508L155.132 34.3493L155.131 34.357L156.119 34.508ZM155.543 31.376L154.743 31.976L154.754 31.9901L154.765 32.0038L155.543 31.376ZM149.747 31.34L149.073 30.601L149.747 31.34ZM148.199 34.508L147.211 34.352L147.211 34.357L148.199 34.508ZM147.407 39.692L148.395 39.8453L148.396 39.843L147.407 39.692ZM147.911 42.896L147.108 43.4918L147.119 43.5065L147.13 43.5207L147.911 42.896ZM148.775 46.36C147.024 46.36 145.885 45.795 145.156 44.7918L143.538 45.9682C144.729 47.605 146.543 48.36 148.775 48.36V46.36ZM145.161 44.7988C144.409 43.7467 144.111 42.2243 144.47 40.0724L142.497 39.7436C142.087 42.1996 142.365 44.3253 143.533 45.9612L145.161 44.7988ZM144.471 40.061L145.335 34.481L143.359 34.175L142.495 39.755L144.471 40.061ZM145.335 34.4824C145.669 32.3482 146.465 30.739 147.67 29.5754L146.281 28.1366C144.702 29.661 143.746 31.6998 143.359 34.1736L145.335 34.4824ZM147.67 29.5754C148.869 28.4172 150.31 27.84 152.051 27.84V25.84C149.809 25.84 147.865 26.6068 146.281 28.1366L147.67 29.5754ZM152.051 27.84C153.349 27.84 154.219 28.1675 154.797 28.695L156.145 27.217C155.091 26.2565 153.682 25.84 152.051 25.84V27.84ZM154.808 28.7046C155.398 29.2271 155.715 29.9381 155.695 30.9611L157.695 30.9989C157.724 29.4779 157.224 28.1729 156.134 27.2074L154.808 28.7046ZM156.695 31.98H156.767V29.98H156.695V31.98ZM157.757 31.1214L158.297 27.3414L156.317 27.0586L155.777 30.8386L157.757 31.1214ZM157.307 28.2H161.195V26.2H157.307V28.2ZM160.207 27.0438L157.075 46.8438L159.051 47.1562L162.183 27.3562L160.207 27.0438ZM158.063 46H154.211V48H158.063V46ZM155.198 47.1598L155.81 43.3798L153.836 43.0602L153.224 46.8402L155.198 47.1598ZM154.823 42.22H154.751V44.22H154.823V42.22ZM153.792 42.9359C153.469 44.0269 152.878 44.8545 152.015 45.4625L153.167 47.0975C154.416 46.2175 155.265 45.0051 155.71 43.5041L153.792 42.9359ZM152.028 45.4538C151.164 46.0429 150.096 46.36 148.775 46.36V48.36C150.43 48.36 151.906 47.9571 153.154 47.1062L152.028 45.4538ZM150.683 44.976C152.127 44.976 153.396 44.5296 154.417 43.599L153.069 42.121C152.458 42.6784 151.687 42.976 150.683 42.976V44.976ZM154.406 43.6086C155.458 42.6772 156.071 41.3898 156.315 39.848L154.339 39.536C154.151 40.7302 153.709 41.5548 153.08 42.1114L154.406 43.6086ZM156.316 39.843L157.108 34.659L155.131 34.357L154.339 39.541L156.316 39.843ZM157.106 34.6667C157.348 33.1645 157.165 31.7935 156.322 30.7482L154.765 32.0038C155.122 32.4465 155.322 33.1635 155.132 34.3493L157.106 34.6667ZM156.343 30.776C155.528 29.6886 154.287 29.224 152.843 29.224V31.224C153.848 31.224 154.407 31.5274 154.743 31.976L156.343 30.776ZM152.843 29.224C151.381 29.224 150.098 29.667 149.073 30.601L150.421 32.079C151.028 31.525 151.81 31.224 152.843 31.224V29.224ZM149.073 30.601C148.051 31.5336 147.454 32.818 147.211 34.352L149.187 34.664C149.377 33.462 149.812 32.6344 150.421 32.079L149.073 30.601ZM147.211 34.357L146.419 39.541L148.396 39.843L149.188 34.659L147.211 34.357ZM146.419 39.5387C146.183 41.0595 146.33 42.4434 147.108 43.4918L148.714 42.3002C148.388 41.8606 148.199 41.1085 148.395 39.8453L146.419 39.5387ZM147.13 43.5207C147.961 44.5592 149.229 44.976 150.683 44.976V42.976C149.593 42.976 149.013 42.6728 148.692 42.2713L147.13 43.5207ZM166.329 45.308L165.584 45.9748L165.59 45.982L166.329 45.308ZM165.069 39.692L166.056 39.8516L166.058 39.843L165.069 39.692ZM165.861 34.508L164.874 34.3484L164.873 34.357L165.861 34.508ZM168.957 28.892L168.326 28.1166L168.957 28.892ZM180.585 28.712L179.871 29.4122L179.878 29.4191L180.585 28.712ZM182.097 33.824V34.824H182.992L183.091 33.9344L182.097 33.824ZM178.209 33.824L177.213 33.7392L177.12 34.824H178.209V33.824ZM177.381 31.196L176.674 31.9031L176.681 31.9098L176.687 31.9163L177.381 31.196ZM171.369 31.376L172.02 32.1353L172.026 32.13L172.032 32.1246L171.369 31.376ZM169.785 34.472L168.798 34.3133L168.797 34.3153L169.785 34.472ZM168.957 39.692L167.969 39.5353L167.969 39.536L168.957 39.692ZM169.533 42.86L168.755 43.4878L168.766 43.5015L168.777 43.5149L169.533 42.86ZM175.509 43.004L174.913 42.2012L174.902 42.2096L175.509 43.004ZM177.165 40.34V39.34H176.368L176.19 40.1166L177.165 40.34ZM181.053 40.34L182.034 40.5361L182.273 39.34H181.053V40.34ZM177.921 45.488L178.529 46.2824L178.53 46.2811L177.921 45.488ZM171.909 46.36C169.62 46.36 168.069 45.7312 167.068 44.634L165.59 45.982C167.085 47.6208 169.255 48.36 171.909 48.36V46.36ZM167.074 44.6412C166.11 43.5639 165.704 42.0294 166.056 39.8515L164.082 39.5325C163.666 42.1066 164.1 44.3161 165.584 45.9748L167.074 44.6412ZM166.058 39.843L166.85 34.659L164.873 34.357L164.081 39.541L166.058 39.843ZM166.848 34.6675C167.198 32.5046 168.12 30.8631 169.589 29.6674L168.326 28.1166C166.434 29.6569 165.292 31.7594 164.874 34.3485L166.848 34.6675ZM169.589 29.6674C171.065 28.4649 172.909 27.84 175.185 27.84V25.84C172.517 25.84 170.209 26.5831 168.326 28.1166L169.589 29.6674ZM175.185 27.84C177.392 27.84 178.895 28.4168 179.871 29.4122L181.299 28.0118C179.827 26.5112 177.73 25.84 175.185 25.84V27.84ZM179.878 29.4191C180.862 30.4029 181.318 31.7785 181.103 33.7136L183.091 33.9344C183.356 31.5495 182.804 29.5171 181.292 28.0049L179.878 29.4191ZM182.097 32.824H178.209V34.824H182.097V32.824ZM179.205 33.9088C179.32 32.5652 178.994 31.3613 178.075 30.4757L176.687 31.9163C177.064 32.2787 177.29 32.8268 177.213 33.7392L179.205 33.9088ZM178.088 30.4889C177.214 29.6145 175.994 29.26 174.609 29.26V31.26C175.672 31.26 176.3 31.5295 176.674 31.9031L178.088 30.4889ZM174.609 29.26C173.09 29.26 171.76 29.6936 170.706 30.6274L172.032 32.1246C172.658 31.5704 173.488 31.26 174.609 31.26V29.26ZM170.718 30.6167C169.66 31.524 169.042 32.7914 168.798 34.3133L170.772 34.6307C170.96 33.4646 171.398 32.668 172.02 32.1353L170.718 30.6167ZM168.797 34.3153L167.969 39.5353L169.945 39.8487L170.773 34.6287L168.797 34.3153ZM167.969 39.536C167.729 41.0556 167.91 42.4402 168.755 43.4878L170.312 42.2322C169.956 41.7918 169.753 41.0644 169.945 39.848L167.969 39.536ZM168.777 43.5149C169.656 44.529 170.956 44.94 172.449 44.94V42.94C171.303 42.94 170.658 42.631 170.289 42.2051L168.777 43.5149ZM172.449 44.94C173.849 44.94 175.095 44.5799 176.117 43.7984L174.902 42.2096C174.292 42.6761 173.497 42.94 172.449 42.94V44.94ZM176.105 43.8067C177.161 43.0224 177.83 41.9154 178.14 40.5634L176.19 40.1166C175.972 41.0686 175.537 41.7376 174.913 42.2013L176.105 43.8067ZM177.165 41.34H181.053V39.34H177.165V41.34ZM180.073 40.1439C179.685 42.0807 178.765 43.579 177.312 44.695L178.53 46.2811C180.389 44.853 181.557 42.9193 182.034 40.5361L180.073 40.1439ZM177.314 44.6936C175.883 45.788 174.101 46.36 171.909 46.36V48.36C174.469 48.36 176.696 47.684 178.529 46.2824L177.314 44.6936ZM185.755 47L184.767 46.8431L184.584 48H185.755V47ZM189.931 20.72V19.72H189.077L188.943 20.5631L189.931 20.72ZM193.819 20.72L194.807 20.8776L194.991 19.72H193.819V20.72ZM191.515 35.156L190.528 34.9984L190.343 36.156H191.515V35.156ZM194.647 35.156V36.156H195.119L195.419 35.7917L194.647 35.156ZM201.199 27.2V26.2H200.727L200.427 26.5643L201.199 27.2ZM205.663 27.2L206.44 27.8293L207.759 26.2H205.663V27.2ZM197.851 36.848L197.074 36.2187L196.679 36.7067L196.947 37.2746L197.851 36.848ZM202.639 47V48H204.216L203.543 46.5734L202.639 47ZM198.283 47L197.377 47.4225L197.646 48H198.283V47ZM194.323 38.504L195.229 38.0815L194.96 37.504H194.323V38.504ZM191.011 38.504V37.504H190.159L190.024 38.345L191.011 38.504ZM189.643 47V48H190.495L190.63 47.159L189.643 47ZM186.743 47.1569L190.919 20.8769L188.943 20.5631L184.767 46.8431L186.743 47.1569ZM189.931 21.72H193.819V19.72H189.931V21.72ZM192.832 20.5624L190.528 34.9984L192.503 35.3136L194.807 20.8776L192.832 20.5624ZM191.515 36.156H194.647V34.156H191.515V36.156ZM195.419 35.7917L201.971 27.8357L200.427 26.5643L193.875 34.5203L195.419 35.7917ZM201.199 28.2H205.663V26.2H201.199V28.2ZM204.886 26.5707L197.074 36.2187L198.628 37.4773L206.44 27.8293L204.886 26.5707ZM196.947 37.2746L201.735 47.4266L203.543 46.5734L198.755 36.4214L196.947 37.2746ZM202.639 46H198.283V48H202.639V46ZM199.189 46.5775L195.229 38.0815L193.417 38.9265L197.377 47.4225L199.189 46.5775ZM194.323 37.504H191.011V39.504H194.323V37.504ZM190.024 38.345L188.656 46.841L190.63 47.159L191.998 38.663L190.024 38.345ZM189.643 46H185.755V48H189.643V46ZM209.501 45.308L208.75 45.9683L208.756 45.9752L208.762 45.982L209.501 45.308ZM208.241 39.692L209.228 39.8531L209.229 39.8475L208.241 39.692ZM210.077 28.028L209.09 27.8685L209.089 27.8725L210.077 28.028ZM213.137 22.412L212.506 21.6365L212.5 21.641L213.137 22.412ZM224.873 22.448L224.122 23.1083L224.128 23.1152L224.134 23.122L224.873 22.448ZM226.169 28.028V29.028H227.019L227.156 28.1891L226.169 28.028ZM222.281 28.028L221.293 27.872L221.111 29.028H222.281V28.028ZM221.669 24.896L220.901 25.5362L220.907 25.5436L220.913 25.5509L221.669 24.896ZM215.549 24.896L214.909 24.1277L214.898 24.1367L215.549 24.896ZM213.965 27.992L212.978 27.8333L212.977 27.837L213.965 27.992ZM212.129 39.692L213.117 39.848L213.117 39.847L212.129 39.692ZM212.705 42.824L211.937 43.4642L211.943 43.4716L211.949 43.4789L212.705 42.824ZM218.861 42.824L218.21 42.0647L218.861 42.824ZM220.445 39.692V38.692H219.59L219.457 39.536L220.445 39.692ZM224.333 39.692L225.321 39.8441L225.499 38.692H224.333V39.692ZM222.677 43.76L221.877 43.1599L221.869 43.1708L222.677 43.76ZM219.473 46.424L219.907 47.325L219.473 46.424ZM215.081 46.36C212.791 46.36 211.241 45.7312 210.24 44.634L208.762 45.982C210.257 47.6208 212.427 48.36 215.081 48.36V46.36ZM210.252 44.6477C209.279 43.5416 208.877 42.001 209.228 39.8531L207.254 39.5309C206.837 42.087 207.275 44.2904 208.75 45.9683L210.252 44.6477ZM209.229 39.8475L211.065 28.1835L209.089 27.8725L207.253 39.5365L209.229 39.8475ZM211.064 28.1875C211.414 26.0202 212.328 24.3776 213.774 23.183L212.5 21.641C210.634 23.1824 209.507 25.2838 209.09 27.8685L211.064 28.1875ZM213.768 23.1874C215.245 21.9849 217.089 21.36 219.365 21.36V19.36C216.697 19.36 214.389 20.1031 212.506 21.6366L213.768 23.1874ZM219.365 21.36C221.623 21.36 223.144 21.9961 224.122 23.1083L225.624 21.7877C224.154 20.1159 222.003 19.36 219.365 19.36V21.36ZM224.134 23.122C225.119 24.202 225.532 25.7224 225.182 27.8669L227.156 28.1891C227.574 25.6296 227.122 23.43 225.612 21.774L224.134 23.122ZM226.169 27.028H222.281V29.028H226.169V27.028ZM223.269 28.184C223.509 26.6606 223.317 25.2703 222.425 24.2411L220.913 25.5509C221.269 25.9617 221.485 26.6594 221.293 27.872L223.269 28.184ZM222.437 24.2558C221.582 23.2298 220.298 22.816 218.825 22.816V24.816C219.944 24.816 220.556 25.1222 220.901 25.5362L222.437 24.2558ZM218.825 22.816C217.314 22.816 215.983 23.2328 214.909 24.1278L216.189 25.6642C216.843 25.1192 217.696 24.816 218.825 24.816V22.816ZM214.898 24.1367C213.84 25.044 213.222 26.3114 212.978 27.8333L214.952 28.1507C215.14 26.9846 215.578 26.188 216.2 25.6553L214.898 24.1367ZM212.977 27.837L211.141 39.537L213.117 39.847L214.953 28.147L212.977 27.837ZM211.141 39.536C210.902 41.0506 211.079 42.4343 211.937 43.4642L213.473 42.1838C213.131 41.7737 212.924 41.0694 213.117 39.848L211.141 39.536ZM211.949 43.4789C212.828 44.493 214.128 44.904 215.621 44.904V42.904C214.474 42.904 213.83 42.595 213.461 42.1691L211.949 43.4789ZM215.621 44.904C217.131 44.904 218.457 44.4874 219.512 43.5833L218.21 42.0647C217.585 42.6006 216.751 42.904 215.621 42.904V44.904ZM219.512 43.5833C220.574 42.6727 221.189 41.3897 221.433 39.848L219.457 39.536C219.269 40.7303 218.828 41.5353 218.21 42.0647L219.512 43.5833ZM220.445 40.692H224.333V38.692H220.445V40.692ZM223.345 39.5399C223.127 40.9534 222.633 42.1519 221.877 43.16L223.477 44.36C224.449 43.0641 225.059 41.5506 225.321 39.8441L223.345 39.5399ZM221.869 43.1708C221.127 44.1884 220.188 44.9698 219.039 45.523L219.907 47.325C221.35 46.6302 222.547 45.6356 223.485 44.3492L221.869 43.1708ZM219.039 45.523C217.896 46.0736 216.583 46.36 215.081 46.36V48.36C216.843 48.36 218.458 48.0224 219.907 47.325L219.039 45.523ZM231.051 45.308L230.293 45.961L230.299 45.9674L231.051 45.308ZM229.827 39.692L230.814 39.8531L230.815 39.843L229.827 39.692ZM230.619 34.508L229.632 34.3469L229.63 34.357L230.619 34.508ZM233.643 28.928L234.285 29.6944L234.286 29.6935L233.643 28.928ZM245.271 28.892L244.519 29.5514L245.271 28.892ZM246.531 34.472L247.519 34.6287L247.519 34.6233L246.531 34.472ZM245.703 39.692L246.69 39.8531L246.691 39.8487L245.703 39.692ZM242.643 45.308L243.285 46.0744L243.286 46.0735L242.643 45.308ZM240.231 42.86L240.893 43.6098L240.231 42.86ZM241.815 39.692L242.8 39.8619L242.802 39.8525L242.803 39.843L241.815 39.692ZM242.607 34.508L241.619 34.3547L241.618 34.357L242.607 34.508ZM242.067 31.34L242.848 30.7153L242.067 31.34ZM234.507 34.508L233.521 34.3381L233.52 34.3475L233.518 34.357L234.507 34.508ZM233.715 39.692L234.703 39.8453L234.703 39.843L233.715 39.692ZM234.255 42.86L235.036 42.2353L234.255 42.86ZM236.523 46.36C234.258 46.36 232.753 45.7323 231.803 44.6486L230.299 45.9674C231.749 47.6197 233.892 48.36 236.523 48.36V46.36ZM231.808 44.6551C230.856 43.5499 230.462 42.0062 230.814 39.8531L228.84 39.5309C228.423 42.0818 228.846 44.2821 230.294 45.9609L231.808 44.6551ZM230.815 39.843L231.607 34.659L229.63 34.357L228.838 39.541L230.815 39.843ZM231.606 34.6691C231.956 32.5235 232.859 30.8899 234.285 29.6944L233.001 28.1616C231.163 29.7021 230.05 31.7885 229.632 34.3469L231.606 34.6691ZM234.286 29.6935C235.738 28.4729 237.553 27.84 239.799 27.84V25.84C237.148 25.84 234.859 26.5991 232.999 28.1625L234.286 29.6935ZM239.799 27.84C242.064 27.84 243.569 28.4677 244.519 29.5514L246.023 28.2326C244.573 26.5803 242.43 25.84 239.799 25.84V27.84ZM244.519 29.5514C245.468 30.6334 245.872 32.1645 245.542 34.3207L247.519 34.6233C247.909 32.0755 247.474 29.8866 246.023 28.2326L244.519 29.5514ZM245.543 34.3153L244.715 39.5353L246.691 39.8487L247.519 34.6287L245.543 34.3153ZM244.716 39.5309C244.366 41.6726 243.453 43.3204 241.999 44.5425L243.286 46.0735C245.144 44.5116 246.271 42.4154 246.69 39.8531L244.716 39.5309ZM242.001 44.5416C240.575 45.7365 238.773 46.36 236.523 46.36V48.36C239.169 48.36 241.447 47.6155 243.285 46.0744L242.001 44.5416ZM237.063 44.94C238.554 44.94 239.86 44.5207 240.893 43.6098L239.569 42.1102C238.97 42.6393 238.164 42.94 237.063 42.94V44.94ZM240.893 43.6098C241.925 42.6992 242.533 41.4108 242.8 39.8619L240.829 39.5221C240.617 40.7572 240.169 41.5808 239.569 42.1102L240.893 43.6098ZM242.803 39.843L243.595 34.659L241.618 34.357L240.826 39.541L242.803 39.843ZM243.595 34.6613C243.831 33.1377 243.673 31.7473 242.848 30.7153L241.286 31.9647C241.612 32.3727 241.814 33.0943 241.619 34.3547L243.595 34.6613ZM242.848 30.7153C242.014 29.6726 240.729 29.26 239.259 29.26V31.26C240.381 31.26 240.968 31.5674 241.286 31.9647L242.848 30.7153ZM239.259 29.26C237.768 29.26 236.462 29.6793 235.429 30.5902L236.753 32.0898C237.352 31.5607 238.158 31.26 239.259 31.26V29.26ZM235.429 30.5902C234.397 31.5008 233.788 32.7892 233.521 34.3381L235.492 34.6779C235.705 33.4428 236.153 32.6192 236.753 32.0898L235.429 30.5902ZM233.518 34.357L232.726 39.541L234.703 39.843L235.495 34.659L233.518 34.357ZM232.727 39.5387C232.49 41.0623 232.648 42.4527 233.474 43.4847L235.036 42.2353C234.709 41.8273 234.508 41.1057 234.703 39.8453L232.727 39.5387ZM233.474 43.4847C234.308 44.5274 235.593 44.94 237.063 44.94V42.94C235.941 42.94 235.354 42.6326 235.036 42.2353L233.474 43.4847ZM252.277 45.38L251.456 45.9515L251.462 45.9599L251.468 45.9682L252.277 45.38ZM251.413 39.908L252.401 40.0624L252.401 40.061L251.413 39.908ZM252.277 34.328L251.289 34.1736L251.289 34.175L252.277 34.328ZM263.401 27.956L262.727 28.695L262.732 28.6998L262.738 28.7046L263.401 27.956ZM264.625 30.98L263.625 30.9611L263.606 31.98H264.625V30.98ZM264.697 30.98V31.98H265.566L265.687 31.1193L264.697 30.98ZM265.345 26.372L264.358 26.2086L264.356 26.2207L264.355 26.2327L265.345 26.372ZM266.281 20.72V19.72H265.433L265.294 20.5566L266.281 20.72ZM270.169 20.72L271.156 20.8769L271.34 19.72H270.169V20.72ZM265.993 47V48H266.846L266.98 47.1569L265.993 47ZM262.141 47L261.154 46.8402L260.966 48H262.141V47ZM262.753 43.22L263.74 43.3798L263.928 42.22H262.753V43.22ZM262.681 43.22V42.22H261.934L261.722 42.9359L262.681 43.22ZM260.521 46.28L261.084 47.1062L261.091 47.1019L261.097 47.0975L260.521 46.28ZM261.673 42.86L261.01 42.1114L261.004 42.1162L260.999 42.121L261.673 42.86ZM263.257 39.692L264.245 39.848L264.245 39.843L263.257 39.692ZM264.049 34.508L263.064 34.3322L263.062 34.3446L263.06 34.357L264.049 34.508ZM263.509 31.376L262.721 31.9916L262.726 31.9977L262.73 32.0038L263.509 31.376ZM257.677 31.34L257.003 30.601L257.677 31.34ZM256.129 34.508L255.141 34.352L255.14 34.357L256.129 34.508ZM255.337 39.692L256.322 39.8619L256.324 39.8525L256.325 39.843L255.337 39.692ZM255.841 42.896L255.05 43.5082L255.055 43.5145L255.06 43.5207L255.841 42.896ZM256.705 46.36C254.953 46.36 253.815 45.795 253.086 44.7918L251.468 45.9682C252.659 47.605 254.472 48.36 256.705 48.36V46.36ZM253.097 44.8085C252.361 43.7512 252.064 42.2199 252.401 40.0624L250.425 39.7536C250.042 42.2041 250.321 44.3208 251.456 45.9515L253.097 44.8085ZM252.401 40.061L253.265 34.481L251.289 34.175L250.425 39.755L252.401 40.061ZM253.265 34.4824C253.598 32.3482 254.394 30.739 255.599 29.5754L254.21 28.1366C252.631 29.661 251.675 31.6998 251.289 34.1736L253.265 34.4824ZM255.599 29.5754C256.799 28.4172 258.239 27.84 259.981 27.84V25.84C257.738 25.84 255.795 26.6068 254.21 28.1366L255.599 29.5754ZM259.981 27.84C261.278 27.84 262.149 28.1675 262.727 28.695L264.075 27.217C263.021 26.2565 261.611 25.84 259.981 25.84V27.84ZM262.738 28.7046C263.328 29.2271 263.644 29.9381 263.625 30.9611L265.625 30.9989C265.653 29.4779 265.154 28.1729 264.064 27.2074L262.738 28.7046ZM264.625 31.98H264.697V29.98H264.625V31.98ZM265.687 31.1193L266.335 26.5113L264.355 26.2327L263.707 30.8407L265.687 31.1193ZM266.331 26.5354L267.267 20.8834L265.294 20.5566L264.358 26.2086L266.331 26.5354ZM266.281 21.72H270.169V19.72H266.281V21.72ZM269.181 20.5631L265.005 46.8431L266.98 47.1569L271.156 20.8769L269.181 20.5631ZM265.993 46H262.141V48H265.993V46ZM263.128 47.1598L263.74 43.3798L261.766 43.0602L261.154 46.8402L263.128 47.1598ZM262.753 42.22H262.681V44.22H262.753V42.22ZM261.722 42.9359C261.399 44.0269 260.808 44.8545 259.945 45.4625L261.097 47.0975C262.346 46.2175 263.195 45.0051 263.64 43.5041L261.722 42.9359ZM259.958 45.4538C259.094 46.0429 258.026 46.36 256.705 46.36V48.36C258.36 48.36 259.836 47.9571 261.084 47.1062L259.958 45.4538ZM258.613 44.976C260.057 44.976 261.326 44.5296 262.347 43.599L260.999 42.121C260.388 42.6784 259.617 42.976 258.613 42.976V44.976ZM262.336 43.6086C263.387 42.6772 264.001 41.3898 264.245 39.848L262.269 39.536C262.081 40.7302 261.638 41.5548 261.01 42.1114L262.336 43.6086ZM264.245 39.843L265.037 34.659L263.06 34.357L262.268 39.541L264.245 39.843ZM265.033 34.6838C265.302 33.1806 265.136 31.801 264.287 30.7482L262.73 32.0038C263.081 32.439 263.276 33.1474 263.064 34.3322L265.033 34.6838ZM264.297 30.7604C263.46 29.6889 262.218 29.224 260.773 29.224V31.224C261.776 31.224 262.358 31.5271 262.721 31.9916L264.297 30.7604ZM260.773 29.224C259.31 29.224 258.028 29.667 257.003 30.601L258.351 32.079C258.958 31.525 259.739 31.224 260.773 31.224V29.224ZM257.003 30.601C255.98 31.5336 255.383 32.818 255.141 34.352L257.117 34.664C257.306 33.462 257.741 32.6344 258.351 32.079L257.003 30.601ZM255.14 34.357L254.348 39.541L256.325 39.843L257.117 34.659L255.14 34.357ZM254.351 39.5221C254.088 41.0518 254.232 42.4512 255.05 43.5082L256.632 42.2838C256.298 41.8528 256.106 41.1162 256.322 39.8619L254.351 39.5221ZM255.06 43.5207C255.891 44.5592 257.159 44.976 258.613 44.976V42.976C257.523 42.976 256.943 42.6728 256.622 42.2713L255.06 43.5207ZM274.259 45.272L273.496 45.9185L273.501 45.9249L274.259 45.272ZM272.999 39.692L273.987 39.8464L273.987 39.843L272.999 39.692ZM273.791 34.508L272.805 34.3386L272.804 34.3478L272.802 34.357L273.791 34.508ZM275.411 30.476L274.603 29.8868L274.595 29.898L275.411 30.476ZM278.615 27.812L279.049 28.713L279.055 28.7098L279.062 28.7064L278.615 27.812ZM288.407 28.964L287.644 29.6105L287.65 29.6175L287.656 29.6243L288.407 28.964ZM289.667 34.508L288.68 34.3436L288.678 34.3567L289.667 34.508ZM289.127 38.036V39.036H289.985L290.115 38.1873L289.127 38.036ZM277.031 38.036V37.036H276.19L276.046 37.8647L277.031 38.036ZM276.743 39.692L275.757 39.5206L275.755 39.534L276.743 39.692ZM284.555 41.852V40.852H283.878L283.626 41.4806L284.555 41.852ZM288.407 41.852L289.361 42.1518L289.769 40.852H288.407V41.852ZM285.239 45.884L285.766 46.7335L285.776 46.7277L285.239 45.884ZM277.571 34.508L276.584 34.3462L276.583 34.35L277.571 34.508ZM277.427 35.408L276.439 35.25L276.253 36.4131L277.431 36.408L277.427 35.408ZM285.779 35.372L285.783 36.372L286.632 36.3683L286.766 35.53L285.779 35.372ZM285.923 34.472L286.91 34.63L286.912 34.618L285.923 34.472ZM285.383 31.124L284.562 31.6958L284.572 31.7101L284.583 31.724L285.383 31.124ZM279.155 31.124L278.469 30.3964L278.464 30.4014L278.458 30.4064L279.155 31.124ZM279.695 46.36C277.463 46.36 275.97 45.7256 275.016 44.6191L273.501 45.9249C274.947 47.6024 277.078 48.36 279.695 48.36V46.36ZM275.022 44.6255C274.056 43.4858 273.659 41.9428 273.987 39.8464L272.011 39.5376C271.618 42.0492 272.062 44.2262 273.496 45.9185L275.022 44.6255ZM273.987 39.843L274.779 34.659L272.802 34.357L272.01 39.541L273.987 39.843ZM274.776 34.6774C275.018 33.2731 275.506 32.072 276.227 31.054L274.595 29.898C273.684 31.184 273.092 32.6709 272.805 34.3386L274.776 34.6774ZM276.219 31.0652C276.961 30.0476 277.9 29.2662 279.049 28.713L278.181 26.911C276.738 27.6058 275.541 28.6004 274.603 29.8868L276.219 31.0652ZM279.062 28.7064C280.204 28.1352 281.501 27.84 282.971 27.84V25.84C281.225 25.84 279.617 26.1928 278.168 26.9176L279.062 28.7064ZM282.971 27.84C285.197 27.84 286.688 28.483 287.644 29.6105L289.17 28.3175C287.725 26.613 285.593 25.84 282.971 25.84V27.84ZM287.656 29.6243C288.631 30.7337 289.029 32.2519 288.68 34.3436L290.653 34.6724C291.073 32.1561 290.63 29.9782 289.158 28.3037L287.656 29.6243ZM288.678 34.3567L288.138 37.8847L290.115 38.1873L290.655 34.6593L288.678 34.3567ZM289.127 37.036H277.031V39.036H289.127V37.036ZM276.046 37.8647L275.758 39.5207L277.728 39.8633L278.016 38.2073L276.046 37.8647ZM275.755 39.534C275.497 41.1478 275.636 42.6102 276.466 43.6801C277.315 44.774 278.675 45.192 280.235 45.192V43.192C278.986 43.192 278.361 42.86 278.046 42.4539C277.712 42.0238 277.508 41.2362 277.73 39.85L275.755 39.534ZM280.235 45.192C281.469 45.192 282.572 44.9798 283.483 44.4863C284.414 43.9819 285.087 43.2142 285.483 42.2234L283.626 41.4806C283.399 42.0498 283.039 42.4521 282.531 42.7277C282.002 43.0142 281.256 43.192 280.235 43.192V45.192ZM284.555 42.852H288.407V40.852H284.555V42.852ZM287.453 41.5522C287 42.9919 286.101 44.1498 284.702 45.0403L285.776 46.7277C287.544 45.6022 288.757 44.0721 289.361 42.1518L287.453 41.5522ZM284.711 45.0346C283.306 45.9076 281.646 46.36 279.695 46.36V48.36C281.968 48.36 284.004 47.8284 285.766 46.7334L284.711 45.0346ZM276.583 34.35L276.439 35.25L278.414 35.566L278.558 34.666L276.583 34.35ZM277.431 36.408L285.783 36.372L285.774 34.372L277.422 34.408L277.431 36.408ZM286.766 35.53L286.91 34.63L284.935 34.314L284.791 35.214L286.766 35.53ZM286.912 34.618C287.146 33.0299 286.987 31.5968 286.183 30.524L284.583 31.724C284.93 32.1872 285.131 32.9861 284.933 34.326L286.912 34.618ZM286.203 30.5522C285.394 29.3908 284.051 28.936 282.503 28.936V30.936C283.69 30.936 284.268 31.2732 284.562 31.6958L286.203 30.5522ZM282.503 28.936C280.911 28.936 279.531 29.3947 278.469 30.3964L279.841 31.8516C280.458 31.2693 281.31 30.936 282.503 30.936V28.936ZM278.458 30.4064C277.447 31.3876 276.848 32.735 276.584 34.3462L278.558 34.6698C278.773 33.353 279.23 32.4444 279.851 31.8416L278.458 30.4064ZM293.793 44.84L292.804 44.6907L292.53 46.5053L294.203 45.7518L293.793 44.84ZM294.369 41.024L293.963 40.1101L293.462 40.3326L293.38 40.8747L294.369 41.024ZM305.961 35.876L305.567 34.9568L305.555 34.9621L305.961 35.876ZM307.401 35.336L307.702 36.2896L307.401 35.336ZM308.445 35.048L308.641 36.0286L308.732 34.0902L308.445 35.048ZM307.473 34.724L307.806 33.781V33.781L307.473 34.724ZM306.249 34.184L306.717 33.3002L306.707 33.2954L306.249 34.184ZM296.277 29.036L295.289 28.878L295.175 29.5926L295.818 29.9246L296.277 29.036ZM296.853 25.436L297.317 24.5505L296.085 23.904L295.865 25.278L296.853 25.436ZM311.469 33.104L312.456 33.2613L312.569 32.5521L311.933 32.2185L311.469 33.104ZM310.821 37.172L311.231 38.0838L311.723 37.8622L311.808 37.3293L310.821 37.172ZM294.782 44.9893L295.358 41.1733L293.38 40.8747L292.804 44.6907L294.782 44.9893ZM294.775 41.9379L306.367 36.7899L305.555 34.9621L293.963 40.1101L294.775 41.9379ZM306.355 36.7951C306.833 36.5903 307.281 36.4223 307.702 36.2896L307.1 34.3824C306.608 34.5377 306.097 34.7297 305.567 34.9569L306.355 36.7951ZM307.702 36.2896C308.149 36.1483 308.456 36.0656 308.641 36.0286L308.249 34.0674C307.954 34.1264 307.564 34.2357 307.1 34.3824L307.702 36.2896ZM308.732 34.0902C308.514 34.0249 308.208 33.9229 307.806 33.781L307.14 35.667C307.554 35.8131 307.895 35.9271 308.157 36.0058L308.732 34.0902ZM307.806 33.781C307.447 33.6544 307.084 33.4947 306.717 33.3002L305.781 35.0678C306.229 35.3053 306.682 35.5056 307.14 35.667L307.806 33.781ZM306.707 33.2954L296.735 28.1474L295.818 29.9246L305.79 35.0726L306.707 33.2954ZM297.264 29.194L297.84 25.594L295.865 25.278L295.289 28.878L297.264 29.194ZM296.388 26.3215L311.004 33.9895L311.933 32.2185L297.317 24.5505L296.388 26.3215ZM310.481 32.9467L309.833 37.0147L311.808 37.3293L312.456 33.2613L310.481 32.9467ZM310.41 36.2602L293.382 43.9282L294.203 45.7518L311.231 38.0838L310.41 36.2602Z" fill="#FFFEFE"/>
<path d="M76.2773 53.48V52.48H75.2773V53.48H76.2773ZM313.737 53.48H314.737V52.48H313.737V53.48ZM313.737 55.28V56.28H314.737V55.28H313.737ZM76.2773 55.28H75.2773V56.28H76.2773V55.28ZM76.2773 54.48H313.737V52.48H76.2773V54.48ZM312.737 53.48V55.28H314.737V53.48H312.737ZM313.737 54.28H76.2773V56.28H313.737V54.28ZM77.2773 55.28V53.48H75.2773V55.28H77.2773Z" fill="#FFFEFE"/>
</g>
<defs>
<filter id="filter0_d_12_191" x="75.1573" y="20.3601" width="240.311" height="35" filterUnits="userSpaceOnUse" color-interpolation-filters="sRGB">
<feFlood flood-opacity="0" result="BackgroundImageFix"/>
<feColorMatrix in="SourceAlpha" type="matrix" values="0 0 0 0 0 0 0 0 0 0 0 0 0 0 0 0 0 0 127 0" result="hardAlpha"/>
<feOffset dy="4"/>
<feGaussianBlur stdDeviation="2"/>
<feComposite in2="hardAlpha" operator="out"/>
<feColorMatrix type="matrix" values="0 0 0 0 0 0 0 0 0 0 0 0 0 0 0 0 0 0 0.25 0"/>
<feBlend mode="normal" in2="BackgroundImageFix" result="effect1_dropShadow_12_191"/>
<feBlend mode="normal" in="SourceGraphic" in2="effect1_dropShadow_12_191" result="shape"/>
</filter>
</defs>
</svg>
